<?xml version="1.0" encoding="UTF-8"?>
<svg xmlns="http://www.w3.org/2000/svg" xmlns:xlink="http://www.w3.org/1999/xlink" width="32px" height="32px" viewBox="0 0 32 32" version="1.1">
<g id="surface1">
<path style=" stroke:none;fill-rule:nonzero;fill:rgb(0%,0%,0%);fill-opacity:1;" d="M 11.832031 6.035156 C 11.15625 6.167969 10.640625 6.703125 10.460938 7.457031 C 10.417969 7.65625 10.410156 7.789062 10.410156 8.707031 L 10.410156 9.734375 L 10.082031 9.734375 C 9.472656 9.734375 9.160156 9.859375 8.816406 10.234375 C 8.601562 10.46875 8.492188 10.667969 8.398438 10.988281 C 8.351562 11.160156 8.347656 11.351562 8.347656 16.003906 L 8.347656 20.839844 L 8.523438 20.863281 C 8.703125 20.890625 9.234375 20.851562 9.589844 20.789062 L 9.777344 20.753906 L 9.851562 20.5 C 9.894531 20.363281 10.011719 19.953125 10.113281 19.585938 C 10.214844 19.222656 10.382812 18.609375 10.492188 18.230469 C 10.757812 17.292969 11.046875 16.234375 11.128906 15.929688 C 11.273438 15.394531 11.390625 15.023438 11.472656 14.859375 C 11.570312 14.648438 11.785156 14.40625 11.96875 14.300781 C 12.265625 14.121094 12.0625 14.128906 16.265625 14.128906 L 20.109375 14.125 L 20.230469 14.007812 C 20.414062 13.824219 20.960938 13.238281 20.953125 13.234375 C 20.945312 13.234375 18.957031 13.234375 16.535156 13.246094 C 11.597656 13.261719 12.042969 13.242188 11.609375 13.480469 C 11.351562 13.621094 11.058594 13.902344 10.882812 14.175781 C 10.707031 14.445312 10.601562 14.71875 10.414062 15.382812 C 10.324219 15.707031 10.207031 16.117188 10.15625 16.296875 C 10.070312 16.597656 9.75 17.757812 9.367188 19.144531 C 9.285156 19.445312 9.207031 19.703125 9.195312 19.71875 C 9.179688 19.734375 9.171875 17.992188 9.171875 15.5 L 9.171875 11.246094 L 9.253906 11.066406 C 9.347656 10.867188 9.484375 10.738281 9.683594 10.675781 C 9.746094 10.65625 10.40625 10.648438 11.570312 10.65625 L 13.363281 10.664062 L 13.554688 10.761719 C 13.710938 10.84375 13.796875 10.921875 14.066406 11.222656 C 14.242188 11.421875 14.460938 11.644531 14.542969 11.71875 C 14.898438 12.03125 15.351562 12.230469 15.785156 12.265625 C 15.933594 12.277344 17.226562 12.28125 18.660156 12.28125 C 21.199219 12.269531 21.585938 12.28125 21.675781 12.363281 C 21.695312 12.378906 21.78125 12.300781 21.957031 12.089844 C 22.332031 11.644531 22.3125 11.695312 22.113281 11.597656 C 21.859375 11.472656 21.597656 11.414062 21.289062 11.421875 L 21.023438 11.425781 L 21.320312 11.445312 C 21.589844 11.464844 21.890625 11.527344 22.003906 11.589844 C 22.03125 11.605469 22.082031 11.632812 22.125 11.65625 C 22.164062 11.675781 22.199219 11.699219 22.199219 11.707031 C 22.195312 11.726562 22.109375 11.835938 21.835938 12.15625 C 21.699219 12.316406 21.695312 12.320312 21.613281 12.28125 C 21.550781 12.253906 21.222656 12.242188 20.347656 12.234375 C 19.125 12.230469 19.003906 12.222656 19.03125 12.179688 C 19.039062 12.164062 19.03125 12.152344 19.011719 12.152344 C 18.992188 12.152344 18.988281 12.144531 18.996094 12.136719 C 19.007812 12.125 19.035156 12.132812 19.0625 12.15625 C 19.101562 12.191406 19.105469 12.191406 19.089844 12.152344 C 19.082031 12.125 19.089844 12.101562 19.113281 12.101562 C 19.132812 12.101562 19.140625 12.113281 19.132812 12.125 C 19.128906 12.136719 19.132812 12.15625 19.148438 12.167969 C 19.164062 12.175781 19.167969 12.152344 19.160156 12.105469 C 19.152344 12.054688 19.160156 12.03125 19.183594 12.042969 C 19.203125 12.050781 19.214844 12.078125 19.210938 12.097656 C 19.207031 12.125 19.21875 12.121094 19.238281 12.089844 C 19.261719 12.058594 19.289062 12.046875 19.296875 12.058594 C 19.3125 12.070312 19.3125 12.0625 19.300781 12.042969 C 19.289062 12.019531 19.296875 12.007812 19.324219 12.007812 C 19.347656 12.007812 19.375 12.027344 19.382812 12.050781 C 19.398438 12.089844 19.402344 12.089844 19.4375 12.042969 C 19.480469 11.980469 19.484375 11.90625 19.445312 11.933594 C 19.429688 11.945312 19.425781 11.960938 19.433594 11.976562 C 19.441406 11.992188 19.4375 12.007812 19.421875 12.019531 C 19.410156 12.03125 19.390625 12.023438 19.378906 12.007812 C 19.359375 11.96875 19.257812 11.96875 19.257812 12.003906 C 19.257812 12.019531 19.230469 12.027344 19.191406 12.023438 C 19.105469 12.019531 19.105469 11.988281 19.199219 11.933594 L 19.273438 11.886719 L 19.191406 11.902344 C 19.113281 11.914062 19.113281 11.914062 19.164062 11.867188 C 19.214844 11.824219 19.214844 11.824219 19.167969 11.839844 C 19.136719 11.851562 19.105469 11.84375 19.089844 11.824219 C 19.070312 11.796875 19.070312 11.800781 19.082031 11.84375 C 19.097656 11.898438 19.09375 11.898438 19.058594 11.847656 C 19.011719 11.78125 18.898438 11.753906 18.917969 11.8125 C 18.925781 11.835938 18.921875 11.863281 18.90625 11.875 C 18.890625 11.886719 18.878906 11.847656 18.886719 11.789062 C 18.890625 11.71875 18.875 11.664062 18.84375 11.628906 C 18.792969 11.582031 18.792969 11.582031 18.835938 11.65625 C 18.867188 11.707031 18.875 11.742188 18.855469 11.753906 C 18.839844 11.765625 18.828125 11.800781 18.828125 11.828125 C 18.828125 11.859375 18.8125 11.894531 18.796875 11.90625 C 18.777344 11.917969 18.773438 11.90625 18.785156 11.863281 C 18.796875 11.820312 18.792969 11.792969 18.761719 11.78125 C 18.742188 11.773438 18.730469 11.742188 18.734375 11.71875 C 18.746094 11.679688 18.742188 11.679688 18.707031 11.726562 C 18.660156 11.785156 18.660156 11.785156 18.671875 11.71875 C 18.679688 11.679688 18.679688 11.65625 18.671875 11.664062 C 18.664062 11.675781 18.640625 11.652344 18.621094 11.617188 C 18.59375 11.554688 18.589844 11.558594 18.597656 11.667969 C 18.605469 11.792969 18.550781 11.894531 18.488281 11.871094 C 18.445312 11.851562 18.453125 11.785156 18.5 11.730469 C 18.527344 11.703125 18.53125 11.703125 18.515625 11.742188 C 18.503906 11.773438 18.511719 11.800781 18.527344 11.8125 C 18.542969 11.824219 18.558594 11.820312 18.558594 11.800781 C 18.558594 11.789062 18.566406 11.753906 18.574219 11.722656 C 18.589844 11.679688 18.582031 11.675781 18.503906 11.691406 C 18.433594 11.707031 18.417969 11.703125 18.433594 11.664062 C 18.441406 11.640625 18.4375 11.625 18.425781 11.632812 C 18.410156 11.644531 18.394531 11.679688 18.386719 11.710938 C 18.378906 11.742188 18.382812 11.765625 18.398438 11.753906 C 18.410156 11.742188 18.421875 11.75 18.421875 11.765625 C 18.421875 11.8125 18.304688 11.875 18.292969 11.832031 C 18.277344 11.78125 18.238281 11.792969 18.226562 11.847656 C 18.214844 11.898438 18.210938 11.898438 18.210938 11.847656 C 18.210938 11.824219 18.1875 11.796875 18.164062 11.796875 C 18.144531 11.792969 18.109375 11.789062 18.09375 11.789062 C 18.074219 11.785156 18.0625 11.757812 18.0625 11.730469 C 18.066406 11.691406 18.058594 11.683594 18.035156 11.707031 C 18.015625 11.730469 18.019531 11.753906 18.042969 11.785156 C 18.070312 11.820312 18.070312 11.839844 18.050781 11.863281 C 18.027344 11.890625 18.015625 11.886719 18.015625 11.851562 C 18.015625 11.828125 17.996094 11.789062 17.972656 11.765625 C 17.933594 11.730469 17.929688 11.730469 17.949219 11.765625 C 17.964844 11.800781 17.960938 11.804688 17.929688 11.789062 C 17.898438 11.777344 17.894531 11.789062 17.902344 11.832031 C 17.910156 11.863281 17.902344 11.886719 17.886719 11.886719 C 17.867188 11.886719 17.859375 11.875 17.871094 11.847656 C 17.886719 11.824219 17.882812 11.824219 17.851562 11.847656 C 17.800781 11.890625 17.695312 11.917969 17.695312 11.886719 C 17.695312 11.863281 17.734375 11.847656 17.78125 11.855469 C 17.792969 11.855469 17.800781 11.84375 17.800781 11.824219 C 17.800781 11.808594 17.777344 11.800781 17.746094 11.8125 C 17.695312 11.832031 17.695312 11.828125 17.726562 11.773438 C 17.746094 11.734375 17.777344 11.71875 17.808594 11.730469 C 17.835938 11.738281 17.855469 11.730469 17.855469 11.710938 C 17.855469 11.691406 17.84375 11.6875 17.828125 11.695312 C 17.816406 11.703125 17.800781 11.703125 17.800781 11.6875 C 17.800781 11.667969 17.777344 11.664062 17.746094 11.671875 C 17.710938 11.679688 17.695312 11.703125 17.703125 11.730469 C 17.710938 11.753906 17.707031 11.769531 17.695312 11.769531 C 17.644531 11.769531 17.664062 11.65625 17.714844 11.644531 C 17.742188 11.632812 17.730469 11.628906 17.6875 11.625 C 17.644531 11.625 17.617188 11.632812 17.625 11.644531 C 17.632812 11.660156 17.621094 11.671875 17.601562 11.671875 C 17.582031 11.671875 17.566406 11.65625 17.5625 11.632812 C 17.5625 11.609375 17.554688 11.574219 17.554688 11.554688 C 17.550781 11.515625 17.441406 11.507812 17.40625 11.542969 C 17.398438 11.550781 17.371094 11.546875 17.347656 11.535156 C 17.320312 11.523438 17.238281 11.511719 17.164062 11.511719 C 16.769531 11.503906 16.71875 11.488281 17.046875 11.476562 C 17.246094 11.464844 18.035156 11.464844 18.792969 11.464844 C 19.601562 11.46875 20.179688 11.460938 20.191406 11.441406 C 20.199219 11.425781 19.730469 11.414062 19.023438 11.414062 C 17.019531 11.414062 15.8125 11.386719 15.628906 11.335938 C 15.304688 11.246094 15.125 11.113281 14.671875 10.617188 C 14.226562 10.125 14.03125 9.96875 13.703125 9.851562 C 13.453125 9.761719 13.109375 9.738281 12.101562 9.734375 L 11.21875 9.734375 L 11.226562 8.679688 C 11.234375 7.632812 11.234375 7.625 11.296875 7.492188 C 11.394531 7.292969 11.464844 7.199219 11.601562 7.089844 C 11.851562 6.890625 11.695312 6.902344 14.550781 6.882812 C 15.976562 6.875 17.144531 6.863281 17.152344 6.855469 C 17.15625 6.847656 16.496094 6.84375 15.683594 6.84375 C 14.867188 6.839844 14.011719 6.835938 13.78125 6.832031 C 13.554688 6.824219 13.273438 6.816406 13.164062 6.816406 C 13.039062 6.8125 12.972656 6.800781 12.996094 6.789062 C 13.015625 6.773438 13.058594 6.769531 13.085938 6.777344 C 13.117188 6.785156 13.136719 6.777344 13.136719 6.753906 C 13.136719 6.71875 13.140625 6.71875 13.164062 6.753906 C 13.1875 6.792969 13.191406 6.792969 13.214844 6.753906 C 13.257812 6.691406 13.25 6.636719 13.203125 6.65625 C 13.179688 6.667969 13.164062 6.65625 13.164062 6.636719 C 13.164062 6.621094 13.148438 6.613281 13.128906 6.625 C 13.109375 6.640625 13.105469 6.632812 13.117188 6.597656 C 13.125 6.574219 13.121094 6.542969 13.101562 6.53125 C 13.085938 6.519531 13.082031 6.523438 13.089844 6.539062 C 13.101562 6.558594 13.089844 6.578125 13.066406 6.585938 C 13.042969 6.597656 13.035156 6.589844 13.046875 6.558594 C 13.058594 6.53125 13.046875 6.523438 13.019531 6.535156 C 12.984375 6.550781 12.980469 6.53125 12.988281 6.414062 C 12.996094 6.339844 12.988281 6.257812 12.972656 6.238281 C 12.953125 6.210938 12.964844 6.203125 13.019531 6.207031 C 13.085938 6.210938 13.148438 6.28125 13.085938 6.28125 C 13.066406 6.28125 13.054688 6.269531 13.054688 6.253906 C 13.054688 6.234375 13.042969 6.222656 13.027344 6.222656 C 13.011719 6.222656 13.015625 6.246094 13.03125 6.28125 C 13.050781 6.3125 13.070312 6.332031 13.078125 6.328125 C 13.085938 6.320312 13.109375 6.332031 13.128906 6.351562 C 13.164062 6.378906 13.167969 6.378906 13.148438 6.34375 C 13.117188 6.28125 13.101562 6.136719 13.132812 6.136719 C 13.144531 6.136719 13.164062 6.152344 13.167969 6.167969 C 13.175781 6.195312 13.195312 6.195312 13.238281 6.167969 C 13.304688 6.128906 13.320312 6.066406 13.257812 6.09375 C 13.234375 6.105469 13.214844 6.097656 13.214844 6.078125 C 13.214844 6.054688 13.773438 6.046875 15.308594 6.054688 C 16.457031 6.058594 17.359375 6.054688 17.3125 6.039062 C 17.261719 6.027344 16.058594 6.011719 14.632812 6.007812 C 12.511719 5.996094 12.003906 6.003906 11.832031 6.035156 Z M 13.109375 6.089844 C 13.109375 6.113281 13.09375 6.136719 13.074219 6.144531 C 13.050781 6.152344 13.039062 6.136719 13.039062 6.101562 C 13.039062 6.070312 13.054688 6.046875 13.074219 6.046875 C 13.09375 6.046875 13.109375 6.066406 13.109375 6.089844 Z M 13.191406 6.058594 C 13.191406 6.066406 13.179688 6.082031 13.164062 6.089844 C 13.148438 6.101562 13.136719 6.09375 13.136719 6.078125 C 13.136719 6.0625 13.148438 6.046875 13.164062 6.046875 C 13.179688 6.046875 13.191406 6.054688 13.191406 6.058594 Z M 12.914062 6.257812 C 12.910156 6.28125 12.921875 6.296875 12.941406 6.289062 C 12.988281 6.28125 12.980469 6.363281 12.9375 6.378906 C 12.910156 6.390625 12.902344 6.382812 12.910156 6.359375 C 12.917969 6.339844 12.902344 6.3125 12.875 6.300781 C 12.832031 6.28125 12.832031 6.277344 12.867188 6.253906 C 12.917969 6.21875 12.917969 6.21875 12.914062 6.257812 Z M 11.273438 6.355469 C 11.273438 6.363281 11.261719 6.378906 11.246094 6.386719 C 11.234375 6.394531 11.21875 6.390625 11.21875 6.375 C 11.21875 6.355469 11.234375 6.34375 11.246094 6.34375 C 11.261719 6.34375 11.273438 6.347656 11.273438 6.355469 Z M 11.179688 6.429688 C 11.171875 6.445312 11.148438 6.460938 11.132812 6.460938 C 11.113281 6.460938 11.117188 6.449219 11.140625 6.429688 C 11.191406 6.394531 11.203125 6.394531 11.179688 6.429688 Z M 12.101562 6.800781 C 12.09375 6.8125 12.070312 6.8125 12.050781 6.804688 C 12.03125 6.796875 12.039062 6.789062 12.066406 6.789062 C 12.097656 6.785156 12.113281 6.792969 12.101562 6.800781 Z M 12.316406 6.800781 C 12.308594 6.8125 12.285156 6.8125 12.265625 6.804688 C 12.246094 6.796875 12.253906 6.789062 12.285156 6.789062 C 12.3125 6.785156 12.328125 6.792969 12.316406 6.800781 Z M 12.480469 6.800781 C 12.472656 6.8125 12.449219 6.8125 12.429688 6.804688 C 12.40625 6.796875 12.414062 6.789062 12.445312 6.789062 C 12.476562 6.785156 12.492188 6.792969 12.480469 6.800781 Z M 12.886719 6.804688 C 12.84375 6.8125 12.78125 6.8125 12.738281 6.804688 C 12.695312 6.800781 12.730469 6.792969 12.8125 6.792969 C 12.894531 6.792969 12.929688 6.800781 12.886719 6.804688 Z M 11.933594 6.84375 C 11.890625 6.855469 11.832031 6.875 11.808594 6.886719 C 11.78125 6.898438 11.761719 6.898438 11.761719 6.890625 C 11.761719 6.863281 11.875 6.816406 11.949219 6.820312 C 12.011719 6.820312 12.007812 6.824219 11.933594 6.84375 Z M 11.636719 6.980469 C 11.609375 7.003906 11.519531 7.089844 11.4375 7.175781 C 11.308594 7.316406 11.28125 7.300781 11.402344 7.152344 C 11.46875 7.070312 11.632812 6.933594 11.664062 6.933594 C 11.683594 6.933594 11.667969 6.953125 11.636719 6.980469 Z M 11.289062 7.375 C 11.28125 7.390625 11.257812 7.402344 11.246094 7.402344 C 11.230469 7.402344 11.226562 7.390625 11.234375 7.375 C 11.242188 7.355469 11.261719 7.34375 11.277344 7.34375 C 11.292969 7.34375 11.296875 7.355469 11.289062 7.375 Z M 11.246094 7.464844 C 11.246094 7.476562 11.234375 7.492188 11.21875 7.492188 C 11.203125 7.492188 11.199219 7.476562 11.207031 7.464844 C 11.214844 7.445312 11.230469 7.433594 11.238281 7.433594 C 11.242188 7.433594 11.246094 7.445312 11.246094 7.464844 Z M 14.066406 10.101562 C 14.128906 10.144531 14.253906 10.257812 14.339844 10.347656 C 14.503906 10.523438 14.472656 10.5 14.28125 10.316406 C 14.226562 10.257812 14.121094 10.179688 14.058594 10.144531 C 13.949219 10.082031 13.890625 10.03125 13.929688 10.03125 C 13.941406 10.03125 14 10.0625 14.066406 10.101562 Z M 13.59375 10.683594 C 13.59375 10.699219 13.570312 10.695312 13.539062 10.679688 C 13.511719 10.660156 13.484375 10.644531 13.484375 10.636719 C 13.484375 10.632812 13.511719 10.632812 13.539062 10.640625 C 13.570312 10.648438 13.59375 10.667969 13.59375 10.683594 Z M 13.703125 10.738281 C 13.703125 10.753906 13.695312 10.765625 13.691406 10.765625 C 13.683594 10.765625 13.667969 10.753906 13.660156 10.738281 C 13.652344 10.71875 13.660156 10.707031 13.671875 10.707031 C 13.6875 10.707031 13.703125 10.71875 13.703125 10.738281 Z M 13.921875 10.933594 C 13.957031 10.980469 13.953125 10.984375 13.914062 10.945312 C 13.886719 10.925781 13.863281 10.902344 13.863281 10.898438 C 13.863281 10.875 13.886719 10.886719 13.921875 10.933594 Z M 14.980469 11.058594 C 14.976562 11.066406 14.949219 11.050781 14.921875 11.019531 C 14.878906 10.96875 14.878906 10.96875 14.933594 11.007812 C 14.96875 11.027344 14.988281 11.050781 14.980469 11.058594 Z M 15.144531 11.179688 C 15.171875 11.226562 15.113281 11.214844 15.066406 11.164062 C 15.042969 11.136719 15.023438 11.109375 15.023438 11.101562 C 15.023438 11.082031 15.125 11.148438 15.144531 11.179688 Z M 15.226562 11.238281 C 15.234375 11.253906 15.230469 11.269531 15.214844 11.269531 C 15.199219 11.269531 15.183594 11.253906 15.183594 11.238281 C 15.183594 11.222656 15.191406 11.210938 15.195312 11.210938 C 15.203125 11.210938 15.21875 11.222656 15.226562 11.238281 Z M 15.332031 11.285156 C 15.394531 11.3125 15.386719 11.355469 15.320312 11.335938 C 15.289062 11.328125 15.265625 11.308594 15.265625 11.296875 C 15.265625 11.261719 15.273438 11.261719 15.332031 11.285156 Z M 15.550781 11.375 C 15.585938 11.382812 15.617188 11.402344 15.617188 11.417969 C 15.617188 11.449219 15.453125 11.390625 15.414062 11.347656 C 15.394531 11.328125 15.402344 11.324219 15.4375 11.339844 C 15.464844 11.347656 15.515625 11.367188 15.550781 11.375 Z M 14.445312 11.503906 C 14.453125 11.519531 14.445312 11.535156 14.433594 11.535156 C 14.417969 11.535156 14.402344 11.519531 14.402344 11.503906 C 14.402344 11.488281 14.410156 11.476562 14.414062 11.476562 C 14.421875 11.476562 14.4375 11.488281 14.445312 11.503906 Z M 16.136719 11.496094 C 16.117188 11.5 16.085938 11.5 16.070312 11.496094 C 16.050781 11.488281 16.066406 11.480469 16.101562 11.480469 C 16.140625 11.480469 16.152344 11.488281 16.136719 11.496094 Z M 16.335938 11.492188 C 16.328125 11.5 16.304688 11.503906 16.285156 11.496094 C 16.265625 11.488281 16.273438 11.476562 16.300781 11.476562 C 16.332031 11.476562 16.347656 11.484375 16.335938 11.492188 Z M 16.648438 11.496094 C 16.632812 11.5 16.59375 11.5 16.570312 11.496094 C 16.542969 11.488281 16.558594 11.480469 16.601562 11.480469 C 16.648438 11.480469 16.667969 11.488281 16.648438 11.496094 Z M 17.152344 11.632812 C 17.144531 11.644531 17.121094 11.621094 17.101562 11.585938 C 17.066406 11.523438 17.070312 11.523438 17.117188 11.570312 C 17.144531 11.597656 17.160156 11.628906 17.152344 11.632812 Z M 17.226562 11.558594 C 17.25 11.574219 17.25 11.597656 17.234375 11.621094 C 17.214844 11.660156 17.207031 11.660156 17.207031 11.617188 C 17.207031 11.589844 17.191406 11.558594 17.175781 11.554688 C 17.15625 11.546875 17.15625 11.535156 17.167969 11.535156 C 17.183594 11.535156 17.207031 11.546875 17.226562 11.558594 Z M 14.539062 11.613281 C 14.574219 11.660156 14.574219 11.664062 14.53125 11.625 C 14.503906 11.605469 14.484375 11.582031 14.484375 11.574219 C 14.484375 11.550781 14.503906 11.566406 14.539062 11.613281 Z M 17.449219 11.597656 C 17.449219 11.613281 17.441406 11.617188 17.425781 11.609375 C 17.410156 11.597656 17.398438 11.609375 17.394531 11.628906 C 17.394531 11.65625 17.390625 11.660156 17.378906 11.628906 C 17.367188 11.597656 17.355469 11.597656 17.320312 11.628906 C 17.28125 11.660156 17.28125 11.660156 17.308594 11.621094 C 17.34375 11.570312 17.449219 11.550781 17.449219 11.597656 Z M 17.53125 11.59375 C 17.53125 11.609375 17.519531 11.621094 17.503906 11.621094 C 17.492188 11.621094 17.476562 11.609375 17.476562 11.59375 C 17.476562 11.574219 17.492188 11.5625 17.503906 11.5625 C 17.519531 11.5625 17.53125 11.574219 17.53125 11.59375 Z M 16.976562 11.636719 C 17.007812 11.660156 17.019531 11.679688 17.003906 11.679688 C 16.988281 11.679688 16.953125 11.660156 16.929688 11.636719 C 16.898438 11.613281 16.882812 11.59375 16.902344 11.59375 C 16.914062 11.59375 16.949219 11.613281 16.976562 11.636719 Z M 14.742188 11.765625 C 14.757812 11.8125 14.671875 11.765625 14.621094 11.699219 C 14.59375 11.660156 14.597656 11.660156 14.65625 11.691406 C 14.695312 11.710938 14.730469 11.742188 14.742188 11.765625 Z M 14.863281 11.84375 C 14.878906 11.867188 14.886719 11.886719 14.878906 11.886719 C 14.867188 11.886719 14.839844 11.867188 14.820312 11.84375 C 14.792969 11.820312 14.789062 11.800781 14.800781 11.800781 C 14.816406 11.800781 14.84375 11.820312 14.863281 11.84375 Z M 18.996094 11.859375 C 19.003906 11.890625 19 11.910156 18.984375 11.898438 C 18.972656 11.890625 18.960938 11.863281 18.960938 11.839844 C 18.960938 11.78125 18.980469 11.789062 18.996094 11.859375 Z M 14.984375 11.917969 C 14.992188 11.933594 14.984375 11.945312 14.972656 11.945312 C 14.957031 11.945312 14.941406 11.933594 14.941406 11.917969 C 14.941406 11.898438 14.949219 11.886719 14.953125 11.886719 C 14.960938 11.886719 14.976562 11.898438 14.984375 11.917969 Z M 19.097656 11.945312 C 19.097656 11.960938 19.085938 11.976562 19.070312 11.976562 C 19.054688 11.976562 19.042969 11.960938 19.042969 11.945312 C 19.042969 11.929688 19.054688 11.917969 19.070312 11.917969 C 19.085938 11.917969 19.097656 11.929688 19.097656 11.945312 Z M 19.042969 12.046875 C 19.042969 12.054688 19.03125 12.070312 19.015625 12.078125 C 19.003906 12.089844 18.988281 12.082031 18.988281 12.066406 C 18.988281 12.050781 19.003906 12.035156 19.015625 12.035156 C 19.03125 12.035156 19.042969 12.042969 19.042969 12.046875 Z M 18.867188 12.210938 C 18.859375 12.226562 18.835938 12.234375 18.8125 12.222656 C 18.757812 12.199219 18.761719 12.183594 18.828125 12.183594 C 18.859375 12.183594 18.878906 12.195312 18.867188 12.210938 Z M 17.667969 13.332031 C 17.667969 13.347656 17.632812 13.363281 17.59375 13.359375 L 17.519531 13.355469 L 17.585938 13.332031 C 17.625 13.320312 17.65625 13.308594 17.660156 13.308594 C 17.664062 13.304688 17.667969 13.316406 17.667969 13.332031 Z M 20.40625 13.339844 C 20.425781 13.359375 20.125 13.378906 19.953125 13.363281 C 19.894531 13.359375 19.882812 13.367188 19.894531 13.402344 C 19.902344 13.429688 19.898438 13.453125 19.882812 13.453125 C 19.863281 13.453125 19.855469 13.433594 19.859375 13.414062 C 19.863281 13.390625 19.824219 13.375 19.75 13.367188 C 19.667969 13.363281 19.636719 13.367188 19.648438 13.390625 C 19.65625 13.40625 19.679688 13.414062 19.691406 13.40625 C 19.707031 13.394531 19.714844 13.394531 19.714844 13.402344 C 19.714844 13.414062 19.695312 13.433594 19.664062 13.449219 C 19.625 13.476562 19.617188 13.46875 19.621094 13.425781 C 19.621094 13.367188 19.628906 13.367188 19.167969 13.367188 C 18.976562 13.363281 18.828125 13.351562 18.835938 13.339844 C 18.855469 13.308594 20.378906 13.308594 20.40625 13.339844 Z M 20.824219 13.316406 C 20.824219 13.324219 20.8125 13.339844 20.796875 13.347656 C 20.78125 13.355469 20.769531 13.351562 20.769531 13.335938 C 20.769531 13.320312 20.78125 13.304688 20.796875 13.304688 C 20.8125 13.304688 20.824219 13.308594 20.824219 13.316406 Z M 17.308594 13.351562 C 17.300781 13.359375 17.277344 13.363281 17.257812 13.355469 C 17.234375 13.34375 17.242188 13.335938 17.273438 13.335938 C 17.304688 13.332031 17.320312 13.34375 17.308594 13.351562 Z M 17.460938 13.355469 C 17.441406 13.359375 17.40625 13.359375 17.390625 13.355469 C 17.371094 13.34375 17.386719 13.339844 17.425781 13.339844 C 17.460938 13.339844 17.476562 13.34375 17.460938 13.355469 Z M 17.863281 13.355469 C 17.828125 13.359375 17.773438 13.359375 17.742188 13.355469 C 17.707031 13.347656 17.734375 13.34375 17.800781 13.34375 C 17.871094 13.34375 17.894531 13.347656 17.863281 13.355469 Z M 18.402344 13.355469 C 18.382812 13.359375 18.347656 13.359375 18.324219 13.355469 C 18.296875 13.34375 18.3125 13.339844 18.355469 13.339844 C 18.402344 13.339844 18.417969 13.34375 18.402344 13.355469 Z M 18.539062 13.355469 C 18.519531 13.359375 18.488281 13.359375 18.46875 13.355469 C 18.453125 13.34375 18.464844 13.339844 18.503906 13.339844 C 18.539062 13.339844 18.554688 13.34375 18.539062 13.355469 Z M 18.742188 13.355469 C 18.714844 13.359375 18.664062 13.359375 18.632812 13.355469 C 18.597656 13.347656 18.617188 13.34375 18.679688 13.34375 C 18.738281 13.339844 18.765625 13.34375 18.742188 13.355469 Z M 19.359375 13.4375 C 19.359375 13.460938 19.347656 13.472656 19.332031 13.464844 C 19.320312 13.453125 19.316406 13.433594 19.324219 13.417969 C 19.351562 13.378906 19.359375 13.386719 19.359375 13.4375 Z M 19.457031 13.417969 C 19.464844 13.433594 19.457031 13.453125 19.433594 13.460938 C 19.410156 13.472656 19.402344 13.464844 19.410156 13.433594 C 19.429688 13.386719 19.4375 13.382812 19.457031 13.417969 Z M 20 13.480469 C 20.007812 13.496094 20.003906 13.511719 19.988281 13.511719 C 19.972656 13.511719 19.960938 13.496094 19.960938 13.480469 C 19.960938 13.464844 19.964844 13.453125 19.96875 13.453125 C 19.976562 13.453125 19.992188 13.464844 20 13.480469 Z M 19.90625 13.523438 C 19.882812 13.554688 19.882812 13.570312 19.902344 13.570312 C 19.917969 13.570312 19.933594 13.59375 19.933594 13.621094 C 19.929688 13.667969 19.925781 13.667969 19.890625 13.617188 C 19.863281 13.574219 19.859375 13.546875 19.882812 13.519531 C 19.898438 13.5 19.917969 13.480469 19.925781 13.480469 C 19.933594 13.480469 19.925781 13.5 19.90625 13.523438 Z M 20.363281 13.789062 C 20.265625 13.890625 20.183594 13.96875 20.175781 13.960938 C 20.160156 13.945312 20.496094 13.597656 20.523438 13.597656 C 20.53125 13.597656 20.460938 13.683594 20.363281 13.789062 Z M 19.851562 13.789062 C 19.851562 13.804688 19.839844 13.800781 19.824219 13.777344 C 19.8125 13.753906 19.796875 13.71875 19.796875 13.703125 C 19.796875 13.683594 19.8125 13.691406 19.824219 13.71875 C 19.839844 13.742188 19.851562 13.773438 19.851562 13.789062 Z M 20.238281 13.734375 C 20.25 13.757812 20.246094 13.769531 20.230469 13.761719 C 20.214844 13.753906 20.203125 13.730469 20.203125 13.714844 C 20.203125 13.671875 20.222656 13.679688 20.238281 13.734375 Z M 20.011719 13.835938 C 20.011719 13.847656 20 13.863281 19.984375 13.863281 C 19.96875 13.863281 19.964844 13.847656 19.972656 13.835938 C 19.980469 13.816406 19.996094 13.804688 20.003906 13.804688 C 20.007812 13.804688 20.011719 13.816406 20.011719 13.835938 Z M 20.011719 13.835938 "/>
<path style=" stroke:none;fill-rule:nonzero;fill:rgb(0%,0%,0%);fill-opacity:1;" d="M 17.476562 6.105469 C 17.570312 6.136719 17.640625 6.136719 17.574219 6.105469 C 17.542969 6.089844 17.496094 6.082031 17.464844 6.082031 C 17.421875 6.082031 17.425781 6.089844 17.476562 6.105469 Z M 17.476562 6.105469 "/>
<path style=" stroke:none;fill-rule:nonzero;fill:rgb(0%,0%,0%);fill-opacity:1;" d="M 13.628906 6.128906 C 13.609375 6.144531 13.609375 6.164062 13.632812 6.203125 C 13.667969 6.253906 13.667969 6.25 13.664062 6.183594 C 13.664062 6.136719 13.660156 6.105469 13.660156 6.105469 C 13.660156 6.105469 13.648438 6.117188 13.628906 6.128906 Z M 13.628906 6.128906 "/>
<path style=" stroke:none;fill-rule:nonzero;fill:rgb(0%,0%,0%);fill-opacity:1;" d="M 17.652344 6.164062 C 17.660156 6.179688 17.683594 6.195312 17.695312 6.195312 C 17.710938 6.195312 17.714844 6.179688 17.707031 6.164062 C 17.699219 6.148438 17.675781 6.136719 17.664062 6.136719 C 17.648438 6.136719 17.644531 6.148438 17.652344 6.164062 Z M 17.652344 6.164062 "/>
<path style=" stroke:none;fill-rule:nonzero;fill:rgb(0%,0%,0%);fill-opacity:1;" d="M 13.304688 6.210938 C 13.3125 6.222656 13.3125 6.25 13.292969 6.273438 C 13.277344 6.296875 13.273438 6.3125 13.292969 6.3125 C 13.332031 6.3125 13.355469 6.230469 13.316406 6.207031 C 13.296875 6.195312 13.292969 6.195312 13.304688 6.210938 Z M 13.304688 6.210938 "/>
<path style=" stroke:none;fill-rule:nonzero;fill:rgb(0%,0%,0%);fill-opacity:1;" d="M 17.808594 6.253906 C 17.847656 6.285156 17.890625 6.3125 17.90625 6.3125 C 17.921875 6.3125 17.9375 6.324219 17.9375 6.34375 C 17.9375 6.355469 17.949219 6.371094 17.964844 6.371094 C 18 6.371094 18.097656 6.464844 18.410156 6.78125 C 18.613281 6.992188 18.605469 6.980469 18.351562 6.703125 C 18.1875 6.523438 17.996094 6.335938 17.921875 6.285156 C 17.773438 6.183594 17.703125 6.164062 17.808594 6.253906 Z M 17.808594 6.253906 "/>
<path style=" stroke:none;fill-rule:nonzero;fill:rgb(0%,0%,0%);fill-opacity:1;" d="M 13.164062 6.285156 C 13.164062 6.300781 13.175781 6.308594 13.191406 6.296875 C 13.207031 6.289062 13.214844 6.273438 13.214844 6.265625 C 13.214844 6.257812 13.207031 6.253906 13.191406 6.253906 C 13.175781 6.253906 13.164062 6.269531 13.164062 6.285156 Z M 13.164062 6.285156 "/>
<path style=" stroke:none;fill-rule:nonzero;fill:rgb(0%,0%,0%);fill-opacity:1;" d="M 13.019531 6.390625 C 13.007812 6.402344 13 6.429688 13 6.457031 C 13.003906 6.496094 13.007812 6.496094 13.03125 6.453125 C 13.058594 6.394531 13.050781 6.355469 13.019531 6.390625 Z M 13.019531 6.390625 "/>
<path style=" stroke:none;fill-rule:nonzero;fill:rgb(0%,0%,0%);fill-opacity:1;" d="M 28.160156 6.417969 C 28.160156 6.453125 28.171875 6.460938 28.179688 6.4375 C 28.1875 6.414062 28.183594 6.390625 28.175781 6.378906 C 28.167969 6.367188 28.160156 6.386719 28.160156 6.417969 Z M 28.160156 6.417969 "/>
<path style=" stroke:none;fill-rule:nonzero;fill:rgb(0%,0%,0%);fill-opacity:1;" d="M 13.136719 6.453125 C 13.136719 6.488281 13.144531 6.519531 13.164062 6.519531 C 13.175781 6.519531 13.179688 6.535156 13.171875 6.558594 C 13.164062 6.585938 13.171875 6.609375 13.1875 6.621094 C 13.203125 6.632812 13.214844 6.625 13.214844 6.609375 C 13.214844 6.589844 13.234375 6.585938 13.25 6.597656 C 13.269531 6.609375 13.257812 6.585938 13.226562 6.546875 C 13.195312 6.507812 13.164062 6.453125 13.15625 6.429688 C 13.144531 6.402344 13.136719 6.410156 13.136719 6.453125 Z M 13.136719 6.453125 "/>
<path style=" stroke:none;fill-rule:nonzero;fill:rgb(0%,0%,0%);fill-opacity:1;" d="M 28.160156 6.535156 C 28.160156 6.570312 28.171875 6.578125 28.179688 6.554688 C 28.1875 6.535156 28.183594 6.507812 28.175781 6.5 C 28.167969 6.488281 28.160156 6.503906 28.160156 6.535156 Z M 28.160156 6.535156 "/>
<path style=" stroke:none;fill-rule:nonzero;fill:rgb(0%,0%,0%);fill-opacity:1;" d="M 13.320312 6.609375 C 13.257812 6.648438 13.257812 6.695312 13.316406 6.695312 C 13.339844 6.695312 13.351562 6.6875 13.34375 6.675781 C 13.332031 6.667969 13.335938 6.640625 13.355469 6.617188 C 13.390625 6.574219 13.382812 6.570312 13.320312 6.609375 Z M 13.320312 6.609375 "/>
<path style=" stroke:none;fill-rule:nonzero;fill:rgb(0%,0%,0%);fill-opacity:1;" d="M 13.660156 6.609375 C 13.652344 6.625 13.652344 6.636719 13.667969 6.632812 C 13.722656 6.621094 13.730469 6.640625 13.699219 6.6875 C 13.664062 6.734375 13.667969 6.738281 13.710938 6.699219 C 13.746094 6.667969 13.75 6.648438 13.726562 6.621094 C 13.6875 6.570312 13.683594 6.570312 13.660156 6.609375 Z M 13.660156 6.609375 "/>
<path style=" stroke:none;fill-rule:nonzero;fill:rgb(0%,0%,0%);fill-opacity:1;" d="M 28.136719 6.714844 C 28.136719 6.746094 28.144531 6.753906 28.152344 6.730469 C 28.160156 6.710938 28.15625 6.683594 28.148438 6.675781 C 28.140625 6.664062 28.132812 6.679688 28.136719 6.714844 Z M 28.136719 6.714844 "/>
<path style=" stroke:none;fill-rule:nonzero;fill:rgb(0%,0%,0%);fill-opacity:1;" d="M 13.539062 6.730469 C 13.507812 6.753906 13.507812 6.757812 13.542969 6.746094 C 13.566406 6.738281 13.601562 6.746094 13.617188 6.765625 C 13.640625 6.789062 13.648438 6.789062 13.648438 6.765625 C 13.648438 6.71875 13.582031 6.695312 13.539062 6.730469 Z M 13.539062 6.730469 "/>
<path style=" stroke:none;fill-rule:nonzero;fill:rgb(0%,0%,0%);fill-opacity:1;" d="M 13.324219 6.753906 C 13.324219 6.769531 13.335938 6.785156 13.351562 6.785156 C 13.367188 6.785156 13.378906 6.769531 13.378906 6.753906 C 13.378906 6.738281 13.367188 6.726562 13.351562 6.726562 C 13.335938 6.726562 13.324219 6.738281 13.324219 6.753906 Z M 13.324219 6.753906 "/>
<path style=" stroke:none;fill-rule:nonzero;fill:rgb(0%,0%,0%);fill-opacity:1;" d="M 13.433594 6.753906 C 13.433594 6.769531 13.445312 6.785156 13.460938 6.785156 C 13.476562 6.785156 13.484375 6.769531 13.484375 6.753906 C 13.484375 6.738281 13.476562 6.726562 13.460938 6.726562 C 13.445312 6.726562 13.433594 6.738281 13.433594 6.753906 Z M 13.433594 6.753906 "/>
<path style=" stroke:none;fill-rule:nonzero;fill:rgb(0%,0%,0%);fill-opacity:1;" d="M 14.039062 6.753906 C 14.03125 6.769531 14.035156 6.785156 14.050781 6.785156 C 14.066406 6.785156 14.078125 6.769531 14.078125 6.753906 C 14.078125 6.738281 14.074219 6.726562 14.070312 6.726562 C 14.0625 6.726562 14.046875 6.738281 14.039062 6.753906 Z M 14.039062 6.753906 "/>
<path style=" stroke:none;fill-rule:nonzero;fill:rgb(0%,0%,0%);fill-opacity:1;" d="M 28.109375 6.949219 C 28.109375 6.980469 28.117188 6.992188 28.125 6.96875 C 28.132812 6.945312 28.128906 6.921875 28.121094 6.910156 C 28.113281 6.898438 28.105469 6.917969 28.109375 6.949219 Z M 28.109375 6.949219 "/>
<path style=" stroke:none;fill-rule:nonzero;fill:rgb(0%,0%,0%);fill-opacity:1;" d="M 18.714844 7.125 C 18.75 7.171875 19.019531 7.488281 19.320312 7.820312 C 20.019531 8.597656 20.558594 9.222656 20.671875 9.386719 C 20.898438 9.71875 20.949219 9.957031 20.964844 10.761719 C 20.972656 11.105469 20.984375 11.394531 20.996094 11.40625 C 21.003906 11.414062 21.011719 11.148438 21.011719 10.808594 C 21.011719 9.71875 20.957031 9.597656 20.035156 8.5625 C 19.117188 7.535156 18.652344 7.027344 18.714844 7.125 Z M 18.714844 7.125 "/>
<path style=" stroke:none;fill-rule:nonzero;fill:rgb(0%,0%,0%);fill-opacity:1;" d="M 17.179688 7.898438 C 17.179688 8.617188 17.1875 8.679688 17.25 8.957031 C 17.328125 9.296875 17.433594 9.5 17.652344 9.75 C 17.765625 9.878906 17.875 9.964844 18.015625 10.039062 C 18.40625 10.242188 18.453125 10.25 19.355469 10.253906 C 19.800781 10.253906 20.179688 10.265625 20.195312 10.277344 C 20.222656 10.292969 20.230469 10.464844 20.230469 10.847656 C 20.230469 11.152344 20.238281 11.386719 20.25 11.375 C 20.269531 11.351562 20.265625 10.335938 20.238281 10.257812 C 20.226562 10.210938 20.171875 10.207031 19.546875 10.207031 C 19.171875 10.207031 18.769531 10.195312 18.652344 10.175781 C 18.320312 10.136719 17.992188 10.007812 17.785156 9.832031 C 17.601562 9.679688 17.394531 9.332031 17.328125 9.054688 C 17.253906 8.765625 17.238281 8.574219 17.230469 7.898438 C 17.222656 7.496094 17.214844 7.15625 17.203125 7.148438 C 17.191406 7.140625 17.179688 7.480469 17.179688 7.898438 Z M 17.179688 7.898438 "/>
<path style=" stroke:none;fill-rule:nonzero;fill:rgb(0%,0%,0%);fill-opacity:1;" d="M 28.054688 7.511719 C 28.054688 7.542969 28.0625 7.550781 28.070312 7.527344 C 28.078125 7.507812 28.074219 7.480469 28.066406 7.472656 C 28.058594 7.460938 28.050781 7.476562 28.054688 7.511719 Z M 28.054688 7.511719 "/>
<path style=" stroke:none;fill-rule:nonzero;fill:rgb(0%,0%,0%);fill-opacity:1;" d="M 18.128906 7.660156 C 18.175781 7.71875 18.527344 8.113281 18.902344 8.535156 C 19.320312 9.007812 19.582031 9.328125 19.582031 9.363281 C 19.582031 9.40625 19.589844 9.414062 19.613281 9.390625 C 19.65625 9.34375 19.628906 9.308594 19.296875 8.933594 C 19.136719 8.75 18.796875 8.363281 18.546875 8.074219 C 18.296875 7.789062 18.078125 7.550781 18.0625 7.550781 C 18.046875 7.550781 18.078125 7.597656 18.128906 7.660156 Z M 18.128906 7.660156 "/>
<path style=" stroke:none;fill-rule:nonzero;fill:rgb(0%,0%,0%);fill-opacity:1;" d="M 28.042969 7.601562 C 28.03125 7.609375 28.023438 7.632812 28.023438 7.652344 C 28.023438 7.667969 28.039062 7.667969 28.058594 7.644531 C 28.074219 7.628906 28.082031 7.605469 28.074219 7.597656 C 28.066406 7.585938 28.050781 7.589844 28.042969 7.601562 Z M 28.042969 7.601562 "/>
<path style=" stroke:none;fill-rule:nonzero;fill:rgb(0%,0%,0%);fill-opacity:1;" d="M 17.929688 7.890625 C 17.90625 8.234375 17.921875 8.613281 17.964844 8.75 C 17.988281 8.824219 17.988281 8.863281 17.964844 8.894531 C 17.9375 8.925781 17.945312 8.933594 17.984375 8.921875 C 18.015625 8.914062 18.054688 8.949219 18.113281 9.042969 C 18.210938 9.210938 18.4375 9.367188 18.621094 9.40625 C 18.804688 9.445312 19.554688 9.449219 19.554688 9.414062 C 19.554688 9.398438 19.355469 9.378906 19.0625 9.375 C 18.609375 9.367188 18.558594 9.359375 18.449219 9.296875 C 18.234375 9.175781 18.078125 8.96875 18.019531 8.742188 C 18.003906 8.679688 17.984375 8.402344 17.972656 8.125 C 17.964844 7.847656 17.953125 7.621094 17.949219 7.617188 C 17.949219 7.613281 17.9375 7.738281 17.929688 7.890625 Z M 17.929688 7.890625 "/>
<path style=" stroke:none;fill-rule:nonzero;fill:rgb(0%,0%,0%);fill-opacity:1;" d="M 28.03125 7.757812 C 28.03125 7.800781 28.035156 7.8125 28.042969 7.792969 C 28.046875 7.777344 28.046875 7.742188 28.042969 7.71875 C 28.035156 7.703125 28.03125 7.71875 28.03125 7.757812 Z M 28.03125 7.757812 "/>
<path style=" stroke:none;fill-rule:nonzero;fill:rgb(0%,0%,0%);fill-opacity:1;" d="M 28.003906 7.949219 C 28.003906 8.015625 28.011719 8.039062 28.015625 8 C 28.023438 7.964844 28.023438 7.910156 28.015625 7.882812 C 28.007812 7.855469 28.003906 7.886719 28.003906 7.949219 Z M 28.003906 7.949219 "/>
<path style=" stroke:none;fill-rule:nonzero;fill:rgb(0%,0%,0%);fill-opacity:1;" d="M 27.972656 8.160156 C 27.972656 8.191406 27.980469 8.199219 27.988281 8.175781 C 27.996094 8.15625 27.996094 8.128906 27.988281 8.121094 C 27.976562 8.109375 27.96875 8.125 27.972656 8.160156 Z M 27.972656 8.160156 "/>
<path style=" stroke:none;fill-rule:nonzero;fill:rgb(0%,0%,0%);fill-opacity:1;" d="M 27.929688 8.539062 C 27.917969 8.648438 27.917969 8.742188 27.925781 8.753906 C 27.933594 8.757812 27.945312 8.679688 27.957031 8.570312 C 27.96875 8.464844 27.96875 8.367188 27.960938 8.359375 C 27.957031 8.351562 27.941406 8.433594 27.929688 8.539062 Z M 27.929688 8.539062 "/>
<path style=" stroke:none;fill-rule:nonzero;fill:rgb(0%,0%,0%);fill-opacity:1;" d="M 17.359375 8.535156 C 17.328125 8.558594 17.316406 8.59375 17.324219 8.617188 C 17.335938 8.644531 17.339844 8.640625 17.339844 8.601562 C 17.34375 8.5625 17.355469 8.550781 17.394531 8.5625 C 17.433594 8.574219 17.441406 8.566406 17.433594 8.535156 C 17.417969 8.488281 17.417969 8.488281 17.359375 8.535156 Z M 17.359375 8.535156 "/>
<path style=" stroke:none;fill-rule:nonzero;fill:rgb(0%,0%,0%);fill-opacity:1;" d="M 17.84375 8.628906 C 17.835938 8.652344 17.84375 8.671875 17.855469 8.671875 C 17.890625 8.671875 17.914062 8.621094 17.886719 8.601562 C 17.871094 8.59375 17.855469 8.605469 17.84375 8.628906 Z M 17.84375 8.628906 "/>
<path style=" stroke:none;fill-rule:nonzero;fill:rgb(0%,0%,0%);fill-opacity:1;" d="M 17.316406 8.730469 C 17.316406 8.769531 17.363281 8.796875 17.398438 8.773438 C 17.421875 8.761719 17.417969 8.746094 17.394531 8.730469 C 17.347656 8.695312 17.316406 8.695312 17.316406 8.730469 Z M 17.316406 8.730469 "/>
<path style=" stroke:none;fill-rule:nonzero;fill:rgb(0%,0%,0%);fill-opacity:1;" d="M 17.902344 8.800781 C 17.890625 8.832031 17.886719 8.863281 17.894531 8.875 C 17.921875 8.898438 17.941406 8.855469 17.929688 8.800781 C 17.921875 8.75 17.921875 8.75 17.902344 8.800781 Z M 17.902344 8.800781 "/>
<path style=" stroke:none;fill-rule:nonzero;fill:rgb(0%,0%,0%);fill-opacity:1;" d="M 17.316406 8.847656 C 17.316406 8.863281 17.328125 8.886719 17.347656 8.894531 C 17.363281 8.90625 17.367188 8.933594 17.359375 8.957031 C 17.335938 9.019531 17.363281 9.007812 17.398438 8.9375 C 17.417969 8.890625 17.417969 8.878906 17.390625 8.886719 C 17.371094 8.890625 17.359375 8.875 17.363281 8.855469 C 17.367188 8.835938 17.359375 8.820312 17.34375 8.820312 C 17.328125 8.820312 17.316406 8.832031 17.316406 8.847656 Z M 17.316406 8.847656 "/>
<path style=" stroke:none;fill-rule:nonzero;fill:rgb(0%,0%,0%);fill-opacity:1;" d="M 27.894531 8.953125 C 27.894531 9 27.898438 9.019531 27.910156 8.988281 C 27.914062 8.960938 27.914062 8.921875 27.910156 8.898438 C 27.898438 8.882812 27.894531 8.902344 27.894531 8.953125 Z M 27.894531 8.953125 "/>
<path style=" stroke:none;fill-rule:nonzero;fill:rgb(0%,0%,0%);fill-opacity:1;" d="M 17.9375 8.996094 C 17.9375 9.015625 17.957031 9.027344 17.976562 9.027344 C 18 9.027344 18.015625 9.019531 18.015625 9.015625 C 18.015625 9.007812 18 8.996094 17.976562 8.984375 C 17.957031 8.976562 17.9375 8.980469 17.9375 8.996094 Z M 17.9375 8.996094 "/>
<path style=" stroke:none;fill-rule:nonzero;fill:rgb(0%,0%,0%);fill-opacity:1;" d="M 17.386719 9.070312 C 17.398438 9.09375 17.40625 9.113281 17.414062 9.113281 C 17.417969 9.113281 17.425781 9.09375 17.425781 9.070312 C 17.425781 9.046875 17.414062 9.027344 17.398438 9.027344 C 17.382812 9.027344 17.378906 9.046875 17.386719 9.070312 Z M 17.386719 9.070312 "/>
<path style=" stroke:none;fill-rule:nonzero;fill:rgb(0%,0%,0%);fill-opacity:1;" d="M 27.871094 9.160156 C 27.871094 9.222656 27.875 9.246094 27.882812 9.210938 C 27.886719 9.175781 27.886719 9.121094 27.882812 9.089844 C 27.875 9.066406 27.867188 9.09375 27.871094 9.160156 Z M 27.871094 9.160156 "/>
<path style=" stroke:none;fill-rule:nonzero;fill:rgb(0%,0%,0%);fill-opacity:1;" d="M 17.398438 9.167969 C 17.398438 9.183594 17.414062 9.214844 17.433594 9.238281 C 17.460938 9.28125 17.46875 9.28125 17.503906 9.246094 C 17.53125 9.207031 17.53125 9.199219 17.488281 9.210938 C 17.460938 9.214844 17.441406 9.203125 17.445312 9.179688 C 17.449219 9.164062 17.441406 9.144531 17.425781 9.144531 C 17.410156 9.144531 17.398438 9.15625 17.398438 9.167969 Z M 17.398438 9.167969 "/>
<path style=" stroke:none;fill-rule:nonzero;fill:rgb(0%,0%,0%);fill-opacity:1;" d="M 27.839844 9.378906 C 27.839844 9.421875 27.847656 9.4375 27.855469 9.414062 C 27.859375 9.398438 27.859375 9.363281 27.855469 9.34375 C 27.847656 9.324219 27.839844 9.339844 27.839844 9.378906 Z M 27.839844 9.378906 "/>
<path style=" stroke:none;fill-rule:nonzero;fill:rgb(0%,0%,0%);fill-opacity:1;" d="M 27.824219 9.542969 C 27.816406 9.570312 27.8125 9.632812 27.8125 9.683594 C 27.8125 9.765625 27.820312 9.753906 27.835938 9.644531 C 27.855469 9.503906 27.851562 9.464844 27.824219 9.542969 Z M 27.824219 9.542969 "/>
<path style=" stroke:none;fill-rule:nonzero;fill:rgb(0%,0%,0%);fill-opacity:1;" d="M 27.785156 9.941406 C 27.785156 9.980469 27.792969 9.996094 27.800781 9.976562 C 27.804688 9.957031 27.804688 9.921875 27.800781 9.902344 C 27.792969 9.886719 27.785156 9.898438 27.785156 9.941406 Z M 27.785156 9.941406 "/>
<path style=" stroke:none;fill-rule:nonzero;fill:rgb(0%,0%,0%);fill-opacity:1;" d="M 18.191406 9.96875 C 18.183594 9.988281 18.195312 9.992188 18.222656 9.980469 C 18.257812 9.964844 18.261719 9.96875 18.246094 10 C 18.234375 10.027344 18.234375 10.03125 18.257812 10.019531 C 18.273438 10.007812 18.28125 9.980469 18.273438 9.96875 C 18.253906 9.933594 18.214844 9.933594 18.191406 9.96875 Z M 18.191406 9.96875 "/>
<path style=" stroke:none;fill-rule:nonzero;fill:rgb(0%,0%,0%);fill-opacity:1;" d="M 18.355469 9.96875 C 18.347656 9.980469 18.359375 10 18.382812 10.011719 C 18.402344 10.019531 18.421875 10.015625 18.421875 10 C 18.421875 9.960938 18.375 9.933594 18.355469 9.96875 Z M 18.355469 9.96875 "/>
<path style=" stroke:none;fill-rule:nonzero;fill:rgb(0%,0%,0%);fill-opacity:1;" d="M 18.546875 10.078125 C 18.503906 10.109375 18.507812 10.113281 18.582031 10.132812 C 18.6875 10.160156 18.707031 10.144531 18.640625 10.082031 C 18.601562 10.046875 18.582031 10.042969 18.546875 10.078125 Z M 18.546875 10.078125 "/>
<path style=" stroke:none;fill-rule:nonzero;fill:rgb(0%,0%,0%);fill-opacity:1;" d="M 18.714844 10.050781 C 18.730469 10.058594 18.757812 10.054688 18.765625 10.046875 C 18.777344 10.039062 18.757812 10.03125 18.730469 10.03125 C 18.699219 10.03125 18.691406 10.042969 18.714844 10.050781 Z M 18.714844 10.050781 "/>
<path style=" stroke:none;fill-rule:nonzero;fill:rgb(0%,0%,0%);fill-opacity:1;" d="M 18.410156 10.089844 C 18.417969 10.101562 18.429688 10.117188 18.4375 10.117188 C 18.445312 10.117188 18.449219 10.101562 18.449219 10.089844 C 18.449219 10.070312 18.4375 10.058594 18.417969 10.058594 C 18.40625 10.058594 18.402344 10.070312 18.410156 10.089844 Z M 18.410156 10.089844 "/>
<path style=" stroke:none;fill-rule:nonzero;fill:rgb(0%,0%,0%);fill-opacity:1;" d="M 18.800781 10.082031 C 18.800781 10.101562 18.777344 10.117188 18.753906 10.125 C 18.726562 10.132812 18.746094 10.136719 18.792969 10.136719 C 18.84375 10.136719 18.875 10.128906 18.863281 10.121094 C 18.851562 10.113281 18.832031 10.089844 18.820312 10.078125 C 18.808594 10.0625 18.800781 10.0625 18.800781 10.082031 Z M 18.800781 10.082031 "/>
<path style=" stroke:none;fill-rule:nonzero;fill:rgb(0%,0%,0%);fill-opacity:1;" d="M 27.761719 10.148438 C 27.761719 10.1875 27.765625 10.203125 27.773438 10.183594 C 27.777344 10.164062 27.777344 10.128906 27.773438 10.109375 C 27.765625 10.089844 27.761719 10.105469 27.761719 10.148438 Z M 27.761719 10.148438 "/>
<path style=" stroke:none;fill-rule:nonzero;fill:rgb(0%,0%,0%);fill-opacity:1;" d="M 27.730469 10.34375 C 27.730469 10.375 27.738281 10.382812 27.746094 10.359375 C 27.753906 10.339844 27.75 10.3125 27.742188 10.304688 C 27.734375 10.292969 27.726562 10.308594 27.730469 10.34375 Z M 27.730469 10.34375 "/>
<path style=" stroke:none;fill-rule:nonzero;fill:rgb(0%,0%,0%);fill-opacity:1;" d="M 26.402344 10.464844 C 26.355469 10.542969 26.308594 10.609375 26.296875 10.621094 C 26.257812 10.65625 26.160156 10.824219 26.183594 10.824219 C 26.191406 10.824219 26.253906 10.75 26.3125 10.65625 C 26.46875 10.410156 26.523438 10.324219 26.503906 10.324219 C 26.496094 10.324219 26.449219 10.386719 26.402344 10.464844 Z M 26.402344 10.464844 "/>
<path style=" stroke:none;fill-rule:nonzero;fill:rgb(0%,0%,0%);fill-opacity:1;" d="M 27.714844 10.492188 C 27.691406 10.640625 27.640625 11.125 27.65625 11.136719 C 27.660156 11.144531 27.679688 11.03125 27.699219 10.878906 C 27.714844 10.730469 27.734375 10.558594 27.742188 10.507812 C 27.761719 10.390625 27.738281 10.378906 27.714844 10.492188 Z M 27.714844 10.492188 "/>
<path style=" stroke:none;fill-rule:nonzero;fill:rgb(0%,0%,0%);fill-opacity:1;" d="M 26.707031 10.457031 C 26.707031 10.472656 26.894531 10.699219 27.125 10.957031 C 27.355469 11.21875 27.535156 11.414062 27.523438 11.390625 C 27.511719 11.367188 27.402344 11.234375 27.28125 11.09375 C 27.160156 10.957031 26.980469 10.746094 26.882812 10.632812 C 26.785156 10.519531 26.707031 10.441406 26.707031 10.457031 Z M 26.707031 10.457031 "/>
<path style=" stroke:none;fill-rule:nonzero;fill:rgb(0%,0%,0%);fill-opacity:1;" d="M 26.0625 10.957031 C 25.984375 11.089844 26 11.089844 26.09375 10.957031 C 26.132812 10.902344 26.15625 10.855469 26.144531 10.855469 C 26.132812 10.855469 26.097656 10.902344 26.0625 10.957031 Z M 26.0625 10.957031 "/>
<path style=" stroke:none;fill-rule:nonzero;fill:rgb(0%,0%,0%);fill-opacity:1;" d="M 24.839844 11.105469 C 24.824219 11.132812 24.820312 11.152344 24.835938 11.152344 C 24.851562 11.152344 24.867188 11.128906 24.878906 11.105469 C 24.886719 11.082031 24.890625 11.0625 24.882812 11.0625 C 24.878906 11.0625 24.859375 11.082031 24.839844 11.105469 Z M 24.839844 11.105469 "/>
<path style=" stroke:none;fill-rule:nonzero;fill:rgb(0%,0%,0%);fill-opacity:1;" d="M 25.875 11.21875 C 25.828125 11.285156 25.765625 11.367188 25.738281 11.402344 C 25.710938 11.433594 25.585938 11.601562 25.457031 11.777344 C 25.328125 11.945312 25.207031 12.105469 25.1875 12.128906 C 25.167969 12.152344 25.097656 12.242188 25.03125 12.332031 L 24.917969 12.492188 L 25.046875 12.34375 C 25.121094 12.261719 25.234375 12.125 25.300781 12.039062 C 25.367188 11.949219 25.488281 11.789062 25.574219 11.683594 C 25.796875 11.390625 25.984375 11.121094 25.972656 11.109375 C 25.964844 11.101562 25.921875 11.152344 25.875 11.21875 Z M 25.875 11.21875 "/>
<path style=" stroke:none;fill-rule:nonzero;fill:rgb(0%,0%,0%);fill-opacity:1;" d="M 24.730469 11.257812 L 24.667969 11.34375 L 24.742188 11.269531 C 24.78125 11.230469 24.816406 11.195312 24.816406 11.1875 C 24.816406 11.164062 24.792969 11.1875 24.730469 11.257812 Z M 24.730469 11.257812 "/>
<path style=" stroke:none;fill-rule:nonzero;fill:rgb(0%,0%,0%);fill-opacity:1;" d="M 27.621094 11.398438 C 27.621094 11.421875 27.605469 11.445312 27.59375 11.453125 C 27.574219 11.457031 27.578125 11.484375 27.601562 11.519531 C 27.644531 11.574219 27.644531 11.574219 27.648438 11.464844 C 27.648438 11.40625 27.640625 11.355469 27.632812 11.355469 C 27.625 11.355469 27.621094 11.375 27.621094 11.398438 Z M 27.621094 11.398438 "/>
<path style=" stroke:none;fill-rule:nonzero;fill:rgb(0%,0%,0%);fill-opacity:1;" d="M 24.542969 11.511719 L 24.457031 11.636719 L 24.558594 11.523438 C 24.613281 11.464844 24.652344 11.40625 24.644531 11.398438 C 24.640625 11.390625 24.59375 11.441406 24.542969 11.511719 Z M 24.542969 11.511719 "/>
<path style=" stroke:none;fill-rule:nonzero;fill:rgb(0%,0%,0%);fill-opacity:1;" d="M 19.265625 11.539062 C 19.230469 11.558594 19.203125 11.585938 19.203125 11.597656 C 19.203125 11.636719 19.230469 11.628906 19.289062 11.5625 C 19.355469 11.5 19.351562 11.496094 19.265625 11.539062 Z M 19.265625 11.539062 "/>
<path style=" stroke:none;fill-rule:nonzero;fill:rgb(0%,0%,0%);fill-opacity:1;" d="M 17.589844 11.585938 C 17.589844 11.617188 17.597656 11.621094 17.605469 11.597656 C 17.609375 11.582031 17.628906 11.570312 17.644531 11.582031 C 17.65625 11.589844 17.667969 11.582031 17.667969 11.566406 C 17.667969 11.546875 17.648438 11.535156 17.625 11.535156 C 17.605469 11.535156 17.585938 11.558594 17.589844 11.585938 Z M 17.589844 11.585938 "/>
<path style=" stroke:none;fill-rule:nonzero;fill:rgb(0%,0%,0%);fill-opacity:1;" d="M 17.800781 11.574219 C 17.800781 11.597656 17.816406 11.628906 17.835938 11.640625 C 17.851562 11.65625 17.859375 11.644531 17.847656 11.613281 C 17.835938 11.585938 17.847656 11.5625 17.878906 11.554688 C 17.910156 11.546875 17.90625 11.539062 17.863281 11.535156 C 17.824219 11.535156 17.800781 11.550781 17.800781 11.574219 Z M 17.800781 11.574219 "/>
<path style=" stroke:none;fill-rule:nonzero;fill:rgb(0%,0%,0%);fill-opacity:1;" d="M 17.949219 11.566406 C 17.9375 11.585938 17.9375 11.601562 17.945312 11.609375 C 17.949219 11.621094 17.964844 11.605469 17.972656 11.578125 C 17.992188 11.527344 17.972656 11.519531 17.949219 11.566406 Z M 17.949219 11.566406 "/>
<path style=" stroke:none;fill-rule:nonzero;fill:rgb(0%,0%,0%);fill-opacity:1;" d="M 18.882812 11.597656 C 18.898438 11.628906 18.921875 11.652344 18.9375 11.652344 C 18.953125 11.652344 18.957031 11.636719 18.945312 11.621094 C 18.9375 11.601562 18.941406 11.574219 18.960938 11.5625 C 18.984375 11.546875 18.972656 11.539062 18.929688 11.542969 C 18.871094 11.546875 18.863281 11.558594 18.882812 11.597656 Z M 18.882812 11.597656 "/>
<path style=" stroke:none;fill-rule:nonzero;fill:rgb(0%,0%,0%);fill-opacity:1;" d="M 19.378906 11.5625 C 19.390625 11.582031 19.410156 11.585938 19.421875 11.578125 C 19.460938 11.550781 19.453125 11.535156 19.402344 11.535156 C 19.382812 11.535156 19.371094 11.546875 19.378906 11.5625 Z M 19.378906 11.5625 "/>
<path style=" stroke:none;fill-rule:nonzero;fill:rgb(0%,0%,0%);fill-opacity:1;" d="M 19.464844 11.578125 C 19.457031 11.601562 19.464844 11.628906 19.480469 11.640625 C 19.496094 11.652344 19.5 11.648438 19.488281 11.628906 C 19.480469 11.613281 19.488281 11.59375 19.507812 11.585938 C 19.527344 11.578125 19.53125 11.570312 19.507812 11.554688 C 19.492188 11.542969 19.472656 11.554688 19.464844 11.578125 Z M 19.464844 11.578125 "/>
<path style=" stroke:none;fill-rule:nonzero;fill:rgb(0%,0%,0%);fill-opacity:1;" d="M 18.140625 11.589844 C 18.128906 11.609375 18.136719 11.621094 18.152344 11.621094 C 18.167969 11.621094 18.175781 11.632812 18.164062 11.648438 C 18.15625 11.664062 18.164062 11.683594 18.179688 11.695312 C 18.210938 11.71875 18.214844 11.652344 18.183594 11.597656 C 18.164062 11.570312 18.152344 11.566406 18.140625 11.589844 Z M 18.140625 11.589844 "/>
<path style=" stroke:none;fill-rule:nonzero;fill:rgb(0%,0%,0%);fill-opacity:1;" d="M 18.679688 11.59375 C 18.6875 11.609375 18.699219 11.621094 18.707031 11.621094 C 18.714844 11.621094 18.71875 11.609375 18.71875 11.59375 C 18.71875 11.574219 18.707031 11.5625 18.6875 11.5625 C 18.675781 11.5625 18.671875 11.574219 18.679688 11.59375 Z M 18.679688 11.59375 "/>
<path style=" stroke:none;fill-rule:nonzero;fill:rgb(0%,0%,0%);fill-opacity:1;" d="M 19.117188 11.621094 C 19.148438 11.648438 19.171875 11.679688 19.164062 11.683594 C 19.160156 11.691406 19.175781 11.699219 19.203125 11.703125 C 19.246094 11.703125 19.242188 11.695312 19.183594 11.632812 C 19.148438 11.597656 19.105469 11.5625 19.089844 11.5625 C 19.074219 11.5625 19.089844 11.585938 19.117188 11.621094 Z M 19.117188 11.621094 "/>
<path style=" stroke:none;fill-rule:nonzero;fill:rgb(0%,0%,0%);fill-opacity:1;" d="M 17.9375 11.6875 C 17.9375 11.699219 17.949219 11.710938 17.960938 11.710938 C 17.976562 11.710938 17.992188 11.699219 18 11.6875 C 18.007812 11.671875 18 11.660156 17.976562 11.660156 C 17.957031 11.660156 17.9375 11.671875 17.9375 11.6875 Z M 17.9375 11.6875 "/>
<path style=" stroke:none;fill-rule:nonzero;fill:rgb(0%,0%,0%);fill-opacity:1;" d="M 18.296875 11.742188 C 18.300781 11.789062 18.339844 11.832031 18.339844 11.785156 C 18.339844 11.777344 18.339844 11.75 18.339844 11.726562 C 18.339844 11.703125 18.332031 11.679688 18.316406 11.679688 C 18.304688 11.679688 18.296875 11.707031 18.296875 11.742188 Z M 18.296875 11.742188 "/>
<path style=" stroke:none;fill-rule:nonzero;fill:rgb(0%,0%,0%);fill-opacity:1;" d="M 18.773438 11.707031 C 18.773438 11.726562 18.785156 11.746094 18.800781 11.753906 C 18.816406 11.765625 18.828125 11.753906 18.828125 11.730469 C 18.828125 11.703125 18.816406 11.679688 18.800781 11.679688 C 18.785156 11.679688 18.773438 11.691406 18.773438 11.707031 Z M 18.773438 11.707031 "/>
<path style=" stroke:none;fill-rule:nonzero;fill:rgb(0%,0%,0%);fill-opacity:1;" d="M 19.273438 11.742188 C 19.261719 11.753906 19.269531 11.769531 19.28125 11.769531 C 19.296875 11.769531 19.3125 11.753906 19.3125 11.742188 C 19.3125 11.722656 19.308594 11.710938 19.300781 11.710938 C 19.292969 11.710938 19.28125 11.722656 19.273438 11.742188 Z M 19.273438 11.742188 "/>
<path style=" stroke:none;fill-rule:nonzero;fill:rgb(0%,0%,0%);fill-opacity:1;" d="M 24.351562 11.761719 C 24.316406 11.808594 24.320312 11.8125 24.363281 11.773438 C 24.386719 11.753906 24.410156 11.730469 24.410156 11.722656 C 24.410156 11.699219 24.386719 11.714844 24.351562 11.761719 Z M 24.351562 11.761719 "/>
<path style=" stroke:none;fill-rule:nonzero;fill:rgb(0%,0%,0%);fill-opacity:1;" d="M 19.324219 11.824219 C 19.316406 11.839844 19.320312 11.863281 19.332031 11.871094 C 19.347656 11.878906 19.359375 11.867188 19.359375 11.84375 C 19.359375 11.792969 19.351562 11.789062 19.324219 11.824219 Z M 19.324219 11.824219 "/>
<path style=" stroke:none;fill-rule:nonzero;fill:rgb(0%,0%,0%);fill-opacity:1;" d="M 19.527344 12.066406 C 19.527344 12.078125 19.542969 12.09375 19.558594 12.09375 C 19.570312 12.09375 19.578125 12.078125 19.570312 12.066406 C 19.558594 12.046875 19.546875 12.035156 19.539062 12.035156 C 19.535156 12.035156 19.527344 12.046875 19.527344 12.066406 Z M 19.527344 12.066406 "/>
<path style=" stroke:none;fill-rule:nonzero;fill:rgb(0%,0%,0%);fill-opacity:1;" d="M 19.960938 12.066406 C 19.960938 12.078125 19.972656 12.09375 19.988281 12.09375 C 20.003906 12.09375 20.007812 12.078125 20 12.066406 C 19.992188 12.046875 19.976562 12.035156 19.96875 12.035156 C 19.964844 12.035156 19.960938 12.046875 19.960938 12.066406 Z M 19.960938 12.066406 "/>
<path style=" stroke:none;fill-rule:nonzero;fill:rgb(0%,0%,0%);fill-opacity:1;" d="M 19.445312 12.152344 C 19.421875 12.171875 19.421875 12.183594 19.4375 12.183594 C 19.457031 12.183594 19.480469 12.167969 19.488281 12.152344 C 19.507812 12.117188 19.5 12.117188 19.445312 12.152344 Z M 19.445312 12.152344 "/>
<path style=" stroke:none;fill-rule:nonzero;fill:rgb(0%,0%,0%);fill-opacity:1;" d="M 21.644531 12.210938 C 21.636719 12.226562 21.648438 12.242188 21.671875 12.242188 C 21.695312 12.242188 21.707031 12.226562 21.699219 12.210938 C 21.691406 12.195312 21.675781 12.183594 21.671875 12.183594 C 21.667969 12.183594 21.652344 12.195312 21.644531 12.210938 Z M 21.644531 12.210938 "/>
<path style=" stroke:none;fill-rule:nonzero;fill:rgb(0%,0%,0%);fill-opacity:1;" d="M 23.664062 12.632812 C 23.542969 12.785156 23.351562 13.011719 23.242188 13.140625 C 23.132812 13.269531 23.046875 13.382812 23.050781 13.390625 C 23.058594 13.398438 23.089844 13.371094 23.125 13.332031 C 23.15625 13.292969 23.285156 13.132812 23.410156 12.980469 C 23.539062 12.828125 23.6875 12.648438 23.742188 12.585938 C 23.832031 12.476562 23.914062 12.355469 23.890625 12.359375 C 23.886719 12.363281 23.785156 12.484375 23.664062 12.632812 Z M 23.664062 12.632812 "/>
<path style=" stroke:none;fill-rule:nonzero;fill:rgb(0%,0%,0%);fill-opacity:1;" d="M 24.824219 12.589844 C 24.757812 12.679688 24.726562 12.71875 24.304688 13.214844 C 24.148438 13.402344 23.964844 13.621094 23.898438 13.703125 C 23.832031 13.78125 23.472656 14.179688 23.101562 14.585938 C 22.265625 15.5 21.886719 15.890625 21.496094 16.253906 C 21.398438 16.34375 21.316406 16.421875 21.308594 16.429688 C 21.300781 16.441406 21.214844 16.519531 21.121094 16.609375 C 21.023438 16.695312 20.914062 16.800781 20.875 16.835938 C 20.839844 16.875 20.707031 16.992188 20.578125 17.101562 C 20.453125 17.210938 20.34375 17.308594 20.335938 17.316406 C 20.285156 17.378906 19.953125 17.667969 19.730469 17.847656 C 19.582031 17.96875 19.457031 18.074219 19.445312 18.082031 C 19.402344 18.136719 18.699219 18.671875 18.675781 18.671875 C 18.640625 18.671875 18.671875 18.613281 18.714844 18.597656 C 18.753906 18.585938 18.765625 18.554688 18.765625 18.484375 C 18.761719 18.429688 18.75 18.386719 18.730469 18.386719 C 18.710938 18.386719 18.703125 18.402344 18.710938 18.425781 C 18.71875 18.453125 18.703125 18.464844 18.664062 18.464844 C 18.617188 18.464844 18.609375 18.457031 18.632812 18.441406 C 18.660156 18.421875 18.652344 18.410156 18.601562 18.402344 C 18.5625 18.390625 18.527344 18.402344 18.519531 18.417969 C 18.511719 18.441406 18.503906 18.441406 18.503906 18.414062 C 18.503906 18.398438 18.515625 18.371094 18.53125 18.363281 C 18.59375 18.320312 18.550781 18.292969 18.46875 18.328125 C 18.382812 18.367188 18.382812 18.367188 18.378906 18.296875 C 18.375 18.242188 18.382812 18.234375 18.410156 18.261719 C 18.441406 18.289062 18.449219 18.28125 18.449219 18.234375 C 18.449219 18.191406 18.433594 18.175781 18.378906 18.183594 C 18.316406 18.1875 18.3125 18.195312 18.328125 18.277344 C 18.339844 18.355469 18.335938 18.367188 18.285156 18.367188 C 18.242188 18.363281 18.222656 18.34375 18.21875 18.296875 C 18.21875 18.246094 18.226562 18.234375 18.253906 18.246094 C 18.28125 18.257812 18.289062 18.246094 18.277344 18.199219 C 18.265625 18.148438 18.289062 18.125 18.347656 18.136719 C 18.363281 18.140625 18.367188 18.128906 18.355469 18.113281 C 18.335938 18.078125 18.160156 18.15625 18.078125 18.238281 C 18.042969 18.269531 18.015625 18.285156 18.015625 18.269531 C 18.015625 18.257812 18.042969 18.222656 18.074219 18.199219 C 18.105469 18.175781 18.152344 18.136719 18.179688 18.113281 C 18.207031 18.089844 18.253906 18.046875 18.289062 18.023438 C 18.378906 17.957031 18.832031 17.585938 18.921875 17.507812 C 18.96875 17.46875 19.140625 17.316406 19.3125 17.167969 C 19.480469 17.019531 19.640625 16.886719 19.664062 16.863281 C 19.683594 16.84375 19.757812 16.78125 19.824219 16.726562 C 19.890625 16.667969 19.96875 16.597656 20.003906 16.5625 C 20.082031 16.484375 20.335938 16.246094 20.398438 16.199219 C 20.421875 16.179688 20.445312 16.152344 20.445312 16.132812 C 20.445312 16.117188 20.257812 16.273438 20.035156 16.476562 C 19.808594 16.679688 19.539062 16.921875 19.433594 17.019531 C 18.925781 17.472656 17.835938 18.332031 17.113281 18.839844 C 16.78125 19.078125 16.300781 19.402344 16.191406 19.472656 C 16.136719 19.503906 16.027344 19.578125 15.949219 19.632812 C 15.871094 19.691406 15.796875 19.734375 15.789062 19.734375 C 15.78125 19.734375 15.742188 19.757812 15.703125 19.789062 C 15.527344 19.921875 14.105469 20.714844 13.648438 20.933594 C 13.507812 21.003906 13.335938 21.085938 13.269531 21.113281 C 12.984375 21.253906 12.484375 21.464844 12.179688 21.578125 C 11.871094 21.691406 11.445312 21.832031 11.375 21.84375 C 11.34375 21.847656 11.289062 21.863281 11.253906 21.875 C 11.21875 21.886719 11.195312 21.882812 11.195312 21.863281 C 11.195312 21.847656 11.210938 21.835938 11.234375 21.847656 C 11.253906 21.859375 11.273438 21.847656 11.273438 21.832031 C 11.273438 21.8125 11.304688 21.800781 11.339844 21.800781 C 11.417969 21.800781 11.457031 21.742188 11.410156 21.710938 C 11.386719 21.691406 11.394531 21.679688 11.4375 21.664062 C 11.472656 21.652344 11.511719 21.644531 11.523438 21.644531 C 11.535156 21.648438 11.542969 21.636719 11.542969 21.621094 C 11.542969 21.605469 11.558594 21.597656 11.570312 21.609375 C 11.585938 21.617188 11.613281 21.617188 11.632812 21.601562 C 11.648438 21.589844 11.671875 21.578125 11.6875 21.574219 C 11.699219 21.574219 11.707031 21.570312 11.714844 21.566406 C 11.714844 21.558594 11.75 21.550781 11.785156 21.546875 C 11.820312 21.539062 11.859375 21.523438 11.867188 21.511719 C 11.875 21.5 11.894531 21.488281 11.910156 21.484375 C 11.976562 21.46875 12.390625 21.296875 12.421875 21.269531 C 12.4375 21.253906 12.457031 21.246094 12.464844 21.253906 C 12.476562 21.261719 12.496094 21.25 12.515625 21.222656 C 12.535156 21.199219 12.5625 21.179688 12.582031 21.179688 C 12.601562 21.179688 12.625 21.160156 12.632812 21.136719 C 12.648438 21.097656 12.640625 21.097656 12.582031 21.136719 C 12.535156 21.171875 12.515625 21.175781 12.515625 21.152344 C 12.515625 21.128906 12.5 21.136719 12.472656 21.164062 C 12.417969 21.222656 12.386719 21.199219 12.433594 21.136719 C 12.453125 21.113281 12.492188 21.089844 12.527344 21.089844 C 12.5625 21.089844 12.589844 21.074219 12.589844 21.046875 C 12.589844 21.023438 12.578125 21.003906 12.5625 21.003906 C 12.554688 21.003906 12.542969 21.015625 12.542969 21.03125 C 12.542969 21.046875 12.523438 21.0625 12.5 21.0625 C 12.480469 21.0625 12.460938 21.046875 12.460938 21.03125 C 12.460938 21.015625 12.472656 21.007812 12.484375 21.015625 C 12.496094 21.023438 12.507812 21.011719 12.507812 20.992188 C 12.507812 20.96875 12.476562 20.957031 12.410156 20.964844 C 12.292969 20.972656 12.234375 20.957031 12.257812 20.914062 C 12.269531 20.894531 12.289062 20.890625 12.308594 20.910156 C 12.328125 20.925781 12.363281 20.925781 12.402344 20.910156 C 12.476562 20.878906 12.476562 20.863281 12.394531 20.847656 C 12.355469 20.839844 12.335938 20.847656 12.34375 20.863281 C 12.351562 20.878906 12.339844 20.886719 12.308594 20.875 C 12.28125 20.863281 12.238281 20.871094 12.222656 20.886719 C 12.1875 20.90625 12.191406 20.921875 12.25 20.96875 C 12.300781 21.023438 12.304688 21.03125 12.257812 21.015625 C 12.15625 20.980469 12.085938 20.933594 12.101562 20.910156 C 12.109375 20.898438 12.125 20.894531 12.144531 20.902344 C 12.160156 20.914062 12.164062 20.910156 12.15625 20.890625 C 12.144531 20.875 12.113281 20.867188 12.082031 20.875 C 12.054688 20.886719 12.03125 20.875 12.03125 20.859375 C 12.03125 20.839844 12.046875 20.824219 12.070312 20.824219 C 12.089844 20.824219 12.109375 20.8125 12.109375 20.796875 C 12.109375 20.777344 12.074219 20.785156 12.023438 20.808594 C 11.820312 20.898438 11.570312 20.980469 11.550781 20.957031 C 11.542969 20.953125 11.601562 20.929688 11.675781 20.902344 C 11.75 20.878906 11.828125 20.847656 11.847656 20.835938 C 11.863281 20.824219 11.917969 20.796875 11.960938 20.777344 C 12.109375 20.71875 12.632812 20.480469 12.796875 20.398438 C 13.5 20.054688 14.835938 19.28125 14.800781 19.242188 C 14.792969 19.234375 14.742188 19.257812 14.679688 19.300781 C 14.445312 19.464844 13.476562 20.003906 13.054688 20.207031 C 12.929688 20.269531 12.753906 20.355469 12.664062 20.398438 C 12.378906 20.539062 11.78125 20.800781 11.652344 20.835938 C 11.613281 20.847656 11.558594 20.871094 11.53125 20.886719 C 11.476562 20.910156 11.113281 21.035156 10.777344 21.144531 C 10.671875 21.175781 10.496094 21.226562 10.382812 21.253906 C 10.273438 21.28125 10.15625 21.3125 10.125 21.328125 C 10.039062 21.363281 9.441406 21.472656 9.144531 21.5 C 8.789062 21.539062 8.265625 21.511719 7.980469 21.445312 C 7.035156 21.222656 6.523438 20.601562 6.523438 19.675781 C 6.519531 19.15625 6.648438 18.660156 6.957031 18 C 7.148438 17.585938 7.265625 17.378906 7.554688 16.957031 L 7.769531 16.644531 L 7.769531 16.003906 C 7.765625 15.652344 7.753906 15.367188 7.742188 15.375 C 7.734375 15.378906 7.613281 15.515625 7.480469 15.679688 C 6.742188 16.585938 6.304688 17.265625 5.933594 18.097656 C 5.230469 19.679688 5.300781 21.160156 6.128906 22.113281 C 6.375 22.398438 6.566406 22.554688 6.898438 22.734375 C 7.367188 23 7.753906 23.109375 8.386719 23.160156 C 9.664062 23.261719 11.304688 22.914062 13.007812 22.183594 C 14.296875 21.625 15.714844 20.84375 17.007812 19.976562 C 17.25 19.8125 18.234375 19.101562 18.4375 18.945312 C 19.132812 18.40625 19.585938 18.035156 20.089844 17.601562 C 20.476562 17.269531 21.382812 16.429688 21.671875 16.136719 C 21.746094 16.066406 21.949219 15.863281 22.117188 15.691406 C 22.6875 15.125 23.253906 14.503906 24.207031 13.390625 C 24.484375 13.070312 24.929688 12.507812 24.902344 12.507812 C 24.894531 12.507812 24.855469 12.546875 24.824219 12.589844 Z M 17.9375 18.347656 C 17.871094 18.390625 17.839844 18.378906 17.898438 18.335938 C 17.925781 18.3125 17.957031 18.300781 17.964844 18.308594 C 17.96875 18.316406 17.957031 18.332031 17.9375 18.347656 Z M 17.828125 18.4375 C 17.828125 18.453125 17.808594 18.464844 17.78125 18.464844 C 17.742188 18.464844 17.738281 18.460938 17.773438 18.4375 C 17.824219 18.402344 17.828125 18.402344 17.828125 18.4375 Z M 18.371094 18.503906 C 18.347656 18.527344 18.332031 18.523438 18.308594 18.5 C 18.289062 18.472656 18.289062 18.464844 18.304688 18.476562 C 18.324219 18.488281 18.34375 18.472656 18.355469 18.441406 C 18.367188 18.40625 18.378906 18.402344 18.386719 18.429688 C 18.394531 18.453125 18.386719 18.488281 18.371094 18.503906 Z M 18.492188 18.578125 C 18.480469 18.585938 18.460938 18.578125 18.449219 18.554688 C 18.410156 18.484375 18.417969 18.457031 18.464844 18.511719 C 18.488281 18.535156 18.5 18.566406 18.492188 18.578125 Z M 17.582031 18.621094 C 17.539062 18.65625 17.371094 18.753906 17.371094 18.746094 C 17.371094 18.726562 17.539062 18.613281 17.570312 18.613281 C 17.582031 18.613281 17.589844 18.617188 17.582031 18.621094 Z M 18.597656 18.75 C 18.515625 18.820312 18.449219 18.855469 18.449219 18.828125 C 18.449219 18.800781 18.582031 18.707031 18.625 18.703125 C 18.640625 18.703125 18.628906 18.726562 18.597656 18.75 Z M 18.179688 18.863281 C 18.21875 18.921875 18.21875 18.921875 18.175781 18.882812 C 18.148438 18.863281 18.125 18.828125 18.125 18.8125 C 18.125 18.792969 18.128906 18.789062 18.132812 18.792969 C 18.136719 18.800781 18.15625 18.832031 18.179688 18.863281 Z M 18.367188 18.933594 C 18.222656 19.046875 18.15625 19.082031 18.140625 19.054688 C 18.128906 19.039062 18.140625 19.027344 18.164062 19.027344 C 18.1875 19.027344 18.214844 19.007812 18.222656 18.980469 C 18.234375 18.957031 18.257812 18.9375 18.277344 18.9375 C 18.339844 18.9375 18.394531 18.863281 18.367188 18.824219 C 18.351562 18.804688 18.363281 18.8125 18.386719 18.835938 C 18.429688 18.875 18.429688 18.882812 18.367188 18.933594 Z M 18.125 19.097656 C 18.125 19.105469 18.113281 19.121094 18.097656 19.128906 C 18.085938 19.136719 18.070312 19.132812 18.070312 19.117188 C 18.070312 19.101562 18.085938 19.085938 18.097656 19.085938 C 18.113281 19.085938 18.125 19.089844 18.125 19.097656 Z M 17.882812 19.273438 C 17.882812 19.28125 17.871094 19.296875 17.855469 19.308594 C 17.84375 19.316406 17.828125 19.308594 17.828125 19.296875 C 17.828125 19.277344 17.84375 19.261719 17.855469 19.261719 C 17.871094 19.261719 17.882812 19.269531 17.882812 19.273438 Z M 17.640625 19.453125 C 17.640625 19.460938 17.628906 19.476562 17.613281 19.484375 C 17.597656 19.492188 17.585938 19.488281 17.585938 19.472656 C 17.585938 19.453125 17.597656 19.441406 17.613281 19.441406 C 17.628906 19.441406 17.640625 19.445312 17.640625 19.453125 Z M 17.234375 19.730469 C 17.234375 19.746094 17.214844 19.765625 17.191406 19.777344 C 17.15625 19.789062 17.152344 19.789062 17.179688 19.75 C 17.21875 19.699219 17.234375 19.691406 17.234375 19.730469 Z M 17.128906 19.804688 C 17.128906 19.8125 17.109375 19.824219 17.085938 19.835938 C 17.0625 19.84375 17.050781 19.839844 17.058594 19.824219 C 17.078125 19.792969 17.128906 19.78125 17.128906 19.804688 Z M 11.894531 20.925781 C 11.894531 20.933594 11.882812 20.949219 11.867188 20.957031 C 11.855469 20.96875 11.839844 20.960938 11.839844 20.945312 C 11.839844 20.929688 11.855469 20.914062 11.867188 20.914062 C 11.882812 20.914062 11.894531 20.921875 11.894531 20.925781 Z M 11.515625 20.984375 C 11.515625 20.992188 11.5 21.003906 11.476562 21.015625 C 11.457031 21.023438 11.4375 21.019531 11.4375 21.003906 C 11.4375 20.984375 11.457031 20.972656 11.476562 20.972656 C 11.5 20.972656 11.515625 20.980469 11.515625 20.984375 Z M 12.433594 21.050781 C 12.464844 21.089844 12.460938 21.097656 12.410156 21.113281 C 12.371094 21.125 12.355469 21.144531 12.367188 21.175781 C 12.382812 21.21875 12.339844 21.269531 12.285156 21.269531 C 12.273438 21.265625 12.28125 21.253906 12.308594 21.234375 C 12.332031 21.21875 12.347656 21.191406 12.335938 21.175781 C 12.328125 21.152344 12.308594 21.160156 12.292969 21.183594 C 12.273438 21.214844 12.269531 21.210938 12.28125 21.175781 C 12.289062 21.148438 12.28125 21.109375 12.257812 21.089844 C 12.230469 21.066406 12.222656 21.074219 12.210938 21.125 C 12.199219 21.1875 12.199219 21.1875 12.195312 21.113281 C 12.195312 21.066406 12.195312 21.03125 12.199219 21.03125 C 12.203125 21.03125 12.242188 21.042969 12.292969 21.058594 C 12.363281 21.078125 12.375 21.078125 12.363281 21.042969 C 12.34375 20.988281 12.390625 20.992188 12.433594 21.050781 Z M 11.328125 21.042969 C 11.328125 21.054688 11.316406 21.066406 11.300781 21.078125 C 11.289062 21.085938 11.273438 21.078125 11.273438 21.066406 C 11.273438 21.046875 11.289062 21.03125 11.300781 21.03125 C 11.316406 21.03125 11.328125 21.039062 11.328125 21.042969 Z M 11.367188 21.742188 C 11.375 21.753906 11.371094 21.769531 11.359375 21.769531 C 11.34375 21.769531 11.328125 21.753906 11.328125 21.742188 C 11.328125 21.722656 11.332031 21.710938 11.339844 21.710938 C 11.347656 21.710938 11.359375 21.722656 11.367188 21.742188 Z M 11.273438 21.753906 C 11.273438 21.757812 11.253906 21.773438 11.230469 21.78125 C 11.210938 21.789062 11.199219 21.789062 11.207031 21.769531 C 11.222656 21.742188 11.273438 21.730469 11.273438 21.753906 Z M 11.167969 21.800781 C 11.167969 21.8125 11.160156 21.828125 11.15625 21.828125 C 11.148438 21.828125 11.132812 21.8125 11.125 21.800781 C 11.117188 21.78125 11.125 21.769531 11.136719 21.769531 C 11.152344 21.769531 11.167969 21.78125 11.167969 21.800781 Z M 11.125 21.921875 C 11.046875 21.953125 11 21.953125 11.019531 21.917969 C 11.027344 21.898438 11.046875 21.894531 11.0625 21.902344 C 11.074219 21.914062 11.085938 21.910156 11.085938 21.890625 C 11.085938 21.875 11.105469 21.871094 11.132812 21.878906 C 11.171875 21.898438 11.171875 21.898438 11.125 21.921875 Z M 11.125 21.921875 "/>
<path style=" stroke:none;fill-rule:nonzero;fill:rgb(0%,0%,0%);fill-opacity:1;" d="M 22.789062 13.679688 L 22.722656 13.761719 L 22.800781 13.691406 C 22.839844 13.648438 22.871094 13.613281 22.871094 13.609375 C 22.871094 13.585938 22.851562 13.605469 22.789062 13.679688 Z M 22.789062 13.679688 "/>
<path style=" stroke:none;fill-rule:nonzero;fill:rgb(0%,0%,0%);fill-opacity:1;" d="M 22.601562 13.886719 C 22.566406 13.933594 22.566406 13.933594 22.609375 13.898438 C 22.636719 13.875 22.65625 13.851562 22.65625 13.847656 C 22.65625 13.824219 22.636719 13.835938 22.601562 13.886719 Z M 22.601562 13.886719 "/>
<path style=" stroke:none;fill-rule:nonzero;fill:rgb(0%,0%,0%);fill-opacity:1;" d="M 21.859375 14.679688 C 21.492188 15.082031 21.253906 15.34375 21.335938 15.265625 C 21.496094 15.109375 22.386719 14.160156 22.492188 14.03125 C 22.652344 13.835938 22.488281 14.007812 21.859375 14.679688 Z M 21.859375 14.679688 "/>
<path style=" stroke:none;fill-rule:nonzero;fill:rgb(0%,0%,0%);fill-opacity:1;" d="M 23.527344 15.089844 C 22.957031 15.71875 22.929688 15.753906 22.886719 15.921875 C 22.800781 16.257812 22.617188 16.933594 22.382812 17.800781 C 22.25 18.289062 22.085938 18.886719 22.023438 19.128906 C 21.957031 19.371094 21.824219 19.871094 21.722656 20.234375 C 21.625 20.601562 21.511719 20.980469 21.46875 21.085938 C 21.328125 21.417969 21.019531 21.683594 20.667969 21.765625 C 20.566406 21.789062 19.734375 21.800781 17.835938 21.800781 C 16.242188 21.800781 15.132812 21.8125 15.117188 21.824219 C 15.101562 21.839844 14.910156 21.953125 14.6875 22.074219 C 14.339844 22.257812 14.097656 22.382812 13.511719 22.664062 C 13.425781 22.703125 13.769531 22.707031 17.113281 22.703125 L 20.808594 22.699219 L 21.011719 22.632812 C 21.308594 22.53125 21.554688 22.378906 21.769531 22.160156 C 22.085938 21.835938 22.25 21.53125 22.410156 20.945312 C 22.453125 20.773438 22.535156 20.480469 22.585938 20.296875 C 22.636719 20.109375 22.707031 19.863281 22.734375 19.75 C 22.761719 19.632812 22.824219 19.410156 22.867188 19.246094 C 22.914062 19.085938 23.023438 18.679688 23.109375 18.347656 C 23.199219 18.015625 23.40625 17.246094 23.574219 16.636719 C 23.886719 15.488281 24.148438 14.453125 24.136719 14.441406 C 24.128906 14.4375 23.855469 14.730469 23.527344 15.089844 Z M 23.527344 15.089844 "/>
<path style=" stroke:none;fill-rule:nonzero;fill:rgb(0%,0%,0%);fill-opacity:1;" d="M 20.953125 15.625 L 20.890625 15.707031 L 20.964844 15.636719 C 21.007812 15.597656 21.039062 15.558594 21.039062 15.554688 C 21.039062 15.53125 21.015625 15.550781 20.953125 15.625 Z M 20.953125 15.625 "/>
<path style=" stroke:none;fill-rule:nonzero;fill:rgb(0%,0%,0%);fill-opacity:1;" d="M 20.648438 15.917969 C 20.542969 16.023438 20.492188 16.082031 20.535156 16.050781 C 20.648438 15.957031 20.882812 15.722656 20.859375 15.722656 C 20.847656 15.722656 20.753906 15.8125 20.648438 15.917969 Z M 20.648438 15.917969 "/>
<path style=" stroke:none;fill-rule:nonzero;fill:rgb(0%,0%,0%);fill-opacity:1;" d="M 18.988281 17.847656 C 18.988281 17.863281 19.003906 17.871094 19.015625 17.863281 C 19.03125 17.851562 19.042969 17.835938 19.042969 17.828125 C 19.042969 17.824219 19.03125 17.816406 19.015625 17.816406 C 19.003906 17.816406 18.988281 17.832031 18.988281 17.847656 Z M 18.988281 17.847656 "/>
<path style=" stroke:none;fill-rule:nonzero;fill:rgb(0%,0%,0%);fill-opacity:1;" d="M 18.550781 17.949219 C 18.558594 17.972656 18.574219 17.984375 18.585938 17.976562 C 18.617188 17.957031 18.617188 17.945312 18.574219 17.925781 C 18.546875 17.914062 18.539062 17.921875 18.550781 17.949219 Z M 18.550781 17.949219 "/>
<path style=" stroke:none;fill-rule:nonzero;fill:rgb(0%,0%,0%);fill-opacity:1;" d="M 19.304688 17.949219 C 19.3125 17.972656 19.328125 17.984375 19.34375 17.976562 C 19.375 17.957031 19.371094 17.945312 19.328125 17.925781 C 19.300781 17.914062 19.292969 17.921875 19.304688 17.949219 Z M 19.304688 17.949219 "/>
<path style=" stroke:none;fill-rule:nonzero;fill:rgb(0%,0%,0%);fill-opacity:1;" d="M 18.476562 18.085938 C 18.476562 18.101562 18.488281 18.105469 18.503906 18.097656 C 18.519531 18.089844 18.53125 18.074219 18.53125 18.066406 C 18.53125 18.058594 18.519531 18.054688 18.503906 18.054688 C 18.488281 18.054688 18.476562 18.066406 18.476562 18.085938 Z M 18.476562 18.085938 "/>
<path style=" stroke:none;fill-rule:nonzero;fill:rgb(0%,0%,0%);fill-opacity:1;" d="M 16.464844 18.113281 C 16.457031 18.128906 16.46875 18.132812 16.492188 18.125 C 16.539062 18.101562 16.546875 18.082031 16.511719 18.082031 C 16.492188 18.082031 16.476562 18.09375 16.464844 18.113281 Z M 16.464844 18.113281 "/>
<path style=" stroke:none;fill-rule:nonzero;fill:rgb(0%,0%,0%);fill-opacity:1;" d="M 18.601562 18.152344 C 18.609375 18.164062 18.59375 18.167969 18.554688 18.15625 C 18.496094 18.136719 18.496094 18.136719 18.539062 18.1875 C 18.566406 18.214844 18.589844 18.234375 18.59375 18.226562 C 18.597656 18.222656 18.613281 18.195312 18.632812 18.167969 C 18.65625 18.128906 18.65625 18.121094 18.625 18.121094 C 18.601562 18.121094 18.59375 18.136719 18.601562 18.152344 Z M 18.601562 18.152344 "/>
<path style=" stroke:none;fill-rule:nonzero;fill:rgb(0%,0%,0%);fill-opacity:1;" d="M 18.746094 18.273438 C 18.746094 18.296875 18.757812 18.320312 18.773438 18.320312 C 18.785156 18.320312 18.792969 18.296875 18.785156 18.273438 C 18.773438 18.25 18.761719 18.230469 18.757812 18.230469 C 18.75 18.230469 18.746094 18.25 18.746094 18.273438 Z M 18.746094 18.273438 "/>
<path style=" stroke:none;fill-rule:nonzero;fill:rgb(0%,0%,0%);fill-opacity:1;" d="M 18.582031 18.289062 C 18.582031 18.304688 18.597656 18.320312 18.613281 18.320312 C 18.628906 18.320312 18.632812 18.304688 18.625 18.289062 C 18.617188 18.269531 18.601562 18.257812 18.59375 18.257812 C 18.589844 18.257812 18.582031 18.269531 18.582031 18.289062 Z M 18.582031 18.289062 "/>
<path style=" stroke:none;fill-rule:nonzero;fill:rgb(0%,0%,0%);fill-opacity:1;" d="M 18.261719 18.320312 C 18.261719 18.335938 18.273438 18.34375 18.289062 18.332031 C 18.304688 18.324219 18.3125 18.308594 18.3125 18.300781 C 18.3125 18.296875 18.304688 18.289062 18.289062 18.289062 C 18.273438 18.289062 18.261719 18.304688 18.261719 18.320312 Z M 18.261719 18.320312 "/>
<path style=" stroke:none;fill-rule:nonzero;fill:rgb(0%,0%,0%);fill-opacity:1;" d="M 18.792969 18.46875 C 18.78125 18.511719 18.785156 18.523438 18.820312 18.511719 C 18.839844 18.503906 18.863281 18.496094 18.871094 18.496094 C 18.898438 18.496094 18.878906 18.441406 18.84375 18.425781 C 18.820312 18.417969 18.800781 18.433594 18.792969 18.46875 Z M 18.792969 18.46875 "/>
<path style=" stroke:none;fill-rule:nonzero;fill:rgb(0%,0%,0%);fill-opacity:1;" d="M 15.925781 18.496094 C 15.917969 18.511719 15.925781 18.523438 15.9375 18.523438 C 15.953125 18.523438 15.96875 18.511719 15.96875 18.496094 C 15.96875 18.476562 15.960938 18.464844 15.957031 18.464844 C 15.949219 18.464844 15.933594 18.476562 15.925781 18.496094 Z M 15.925781 18.496094 "/>
<path style=" stroke:none;fill-rule:nonzero;fill:rgb(0%,0%,0%);fill-opacity:1;" d="M 15.75 18.613281 C 15.726562 18.632812 15.726562 18.644531 15.742188 18.644531 C 15.761719 18.644531 15.785156 18.628906 15.792969 18.613281 C 15.8125 18.578125 15.804688 18.578125 15.75 18.613281 Z M 15.75 18.613281 "/>
<path style=" stroke:none;fill-rule:nonzero;fill:rgb(0%,0%,0%);fill-opacity:1;" d="M 15.015625 19.089844 C 14.835938 19.210938 14.773438 19.285156 14.945312 19.179688 C 15.210938 19.015625 15.28125 18.960938 15.21875 18.96875 C 15.207031 18.972656 15.117188 19.027344 15.015625 19.089844 Z M 15.015625 19.089844 "/>
<path style=" stroke:none;fill-rule:nonzero;fill:rgb(0%,0%,0%);fill-opacity:1;" d="M 13.066406 20.324219 C 13.046875 20.363281 13.09375 20.382812 13.132812 20.355469 C 13.160156 20.339844 13.15625 20.328125 13.125 20.316406 C 13.101562 20.308594 13.078125 20.308594 13.066406 20.324219 Z M 13.066406 20.324219 "/>
<path style=" stroke:none;fill-rule:nonzero;fill:rgb(0%,0%,0%);fill-opacity:1;" d="M 12.839844 20.441406 C 12.816406 20.460938 12.8125 20.472656 12.832031 20.472656 C 12.847656 20.472656 12.871094 20.457031 12.878906 20.441406 C 12.902344 20.40625 12.890625 20.40625 12.839844 20.441406 Z M 12.839844 20.441406 "/>
<path style=" stroke:none;fill-rule:nonzero;fill:rgb(0%,0%,0%);fill-opacity:1;" d="M 12.527344 20.679688 C 12.519531 20.691406 12.527344 20.707031 12.539062 20.707031 C 12.554688 20.707031 12.570312 20.691406 12.570312 20.679688 C 12.570312 20.660156 12.5625 20.648438 12.558594 20.648438 C 12.550781 20.648438 12.535156 20.660156 12.527344 20.679688 Z M 12.527344 20.679688 "/>
<path style=" stroke:none;fill-rule:nonzero;fill:rgb(0%,0%,0%);fill-opacity:1;" d="M 12.175781 20.753906 C 12.125 20.792969 12.125 20.792969 12.1875 20.777344 C 12.21875 20.765625 12.246094 20.75 12.246094 20.734375 C 12.246094 20.699219 12.238281 20.703125 12.175781 20.753906 Z M 12.175781 20.753906 "/>
<path style=" stroke:none;fill-rule:nonzero;fill:rgb(0%,0%,0%);fill-opacity:1;" d="M 12.691406 21.089844 C 12.683594 21.105469 12.6875 21.121094 12.703125 21.121094 C 12.71875 21.121094 12.730469 21.105469 12.730469 21.089844 C 12.730469 21.074219 12.726562 21.0625 12.71875 21.0625 C 12.710938 21.0625 12.699219 21.074219 12.691406 21.089844 Z M 12.691406 21.089844 "/>
<path style=" stroke:none;fill-rule:nonzero;fill:rgb(0%,0%,0%);fill-opacity:1;" d="M 4.167969 26.414062 C 3.992188 26.496094 3.882812 26.726562 3.925781 26.929688 C 3.945312 27.042969 4.050781 27.1875 4.15625 27.242188 C 4.265625 27.304688 4.5 27.296875 4.613281 27.230469 C 4.910156 27.058594 4.902344 26.578125 4.601562 26.425781 C 4.472656 26.363281 4.285156 26.355469 4.167969 26.414062 Z M 4.167969 26.414062 "/>
<path style=" stroke:none;fill-rule:nonzero;fill:rgb(0%,0%,0%);fill-opacity:1;" d="M 23.070312 26.464844 C 23.023438 26.476562 22.949219 26.535156 22.902344 26.59375 C 22.832031 26.679688 22.820312 26.722656 22.820312 26.84375 C 22.820312 26.976562 22.828125 27.003906 22.925781 27.109375 C 23.023438 27.214844 23.046875 27.226562 23.171875 27.226562 C 23.402344 27.226562 23.554688 27.078125 23.554688 26.84375 C 23.554688 26.578125 23.308594 26.386719 23.070312 26.464844 Z M 23.070312 26.464844 "/>
<path style=" stroke:none;fill-rule:nonzero;fill:rgb(0%,0%,0%);fill-opacity:1;" d="M 5.394531 28.570312 L 5.394531 30.558594 L 6.148438 30.558594 L 6.148438 26.578125 L 5.394531 26.578125 Z M 5.394531 28.570312 "/>
<path style=" stroke:none;fill-rule:nonzero;fill:rgb(0%,0%,0%);fill-opacity:1;" d="M 19.953125 26.597656 C 19.941406 26.609375 19.933594 27.503906 19.933594 28.589844 L 19.933594 30.5625 L 20.511719 30.546875 L 20.511719 29.789062 L 20.722656 29.570312 C 20.839844 29.449219 20.945312 29.351562 20.957031 29.351562 C 20.96875 29.351562 21.171875 29.621094 21.402344 29.957031 L 21.824219 30.558594 L 22.175781 30.558594 C 22.367188 30.558594 22.523438 30.554688 22.523438 30.546875 C 22.523438 30.535156 22.269531 30.164062 21.957031 29.714844 L 21.390625 28.898438 L 21.625 28.628906 C 21.753906 28.484375 21.992188 28.210938 22.15625 28.03125 L 22.449219 27.699219 L 21.726562 27.699219 L 21.136719 28.34375 C 20.808594 28.703125 20.535156 28.988281 20.527344 28.980469 C 20.519531 28.976562 20.507812 28.4375 20.503906 27.78125 L 20.5 26.59375 L 20.234375 26.585938 C 20.089844 26.582031 19.960938 26.585938 19.953125 26.597656 Z M 19.953125 26.597656 "/>
<path style=" stroke:none;fill-rule:nonzero;fill:rgb(0%,0%,0%);fill-opacity:1;" d="M 1.449219 26.808594 L 1.023438 26.816406 L 1.023438 30.558594 L 1.808594 30.558594 L 1.808594 29.144531 L 2.570312 29.144531 C 2.992188 29.144531 3.34375 29.136719 3.347656 29.132812 C 3.351562 29.125 3.355469 28.964844 3.351562 28.777344 L 3.34375 28.429688 L 1.820312 28.453125 L 1.8125 27.96875 L 1.808594 27.492188 L 3.5625 27.492188 L 3.558594 27.152344 L 3.554688 26.816406 L 2.714844 26.808594 C 2.253906 26.800781 1.683594 26.800781 1.449219 26.808594 Z M 1.449219 26.808594 "/>
<path style=" stroke:none;fill-rule:nonzero;fill:rgb(0%,0%,0%);fill-opacity:1;" d="M 10.082031 26.808594 L 9.359375 26.8125 L 9.359375 27.375 L 9.902344 27.378906 L 10.449219 27.390625 L 10.453125 27.683594 C 10.457031 27.847656 10.460938 28.558594 10.460938 29.269531 L 10.464844 30.558594 L 11.058594 30.558594 L 11.058594 27.375 L 12.164062 27.375 L 12.164062 26.816406 L 11.484375 26.808594 C 11.109375 26.800781 10.480469 26.800781 10.082031 26.808594 Z M 10.082031 26.808594 "/>
<path style=" stroke:none;fill-rule:nonzero;fill:rgb(0%,0%,0%);fill-opacity:1;" d="M 7.605469 27.691406 C 7.367188 27.761719 7.21875 27.863281 7.019531 28.089844 C 6.808594 28.332031 6.703125 28.570312 6.660156 28.910156 C 6.601562 29.375 6.730469 29.8125 7.023438 30.136719 C 7.558594 30.722656 8.542969 30.765625 9.113281 30.230469 C 9.160156 30.1875 9.199219 30.140625 9.199219 30.128906 C 9.199219 30.121094 9.105469 30.007812 8.992188 29.878906 L 8.785156 29.648438 L 8.675781 29.75 C 8.535156 29.882812 8.367188 29.941406 8.136719 29.941406 C 7.917969 29.9375 7.78125 29.894531 7.644531 29.777344 C 7.542969 29.695312 7.390625 29.460938 7.390625 29.390625 C 7.390625 29.359375 7.585938 29.351562 8.375 29.351562 L 9.359375 29.351562 L 9.359375 29.121094 C 9.359375 28.464844 9.023438 27.914062 8.511719 27.71875 C 8.308594 27.636719 7.828125 27.625 7.605469 27.691406 Z M 8.261719 28.304688 C 8.449219 28.390625 8.65625 28.65625 8.65625 28.8125 C 8.65625 28.839844 8.511719 28.847656 8.023438 28.847656 C 7.648438 28.847656 7.390625 28.835938 7.390625 28.824219 C 7.390625 28.765625 7.449219 28.625 7.515625 28.519531 C 7.65625 28.296875 8.015625 28.191406 8.261719 28.304688 Z M 8.261719 28.304688 "/>
<path style=" stroke:none;fill-rule:nonzero;fill:rgb(0%,0%,0%);fill-opacity:1;" d="M 4.003906 27.695312 C 3.996094 27.703125 3.992188 28.351562 3.992188 29.136719 L 3.992188 30.558594 L 4.746094 30.558594 L 4.742188 29.121094 L 4.734375 27.683594 L 4.375 27.683594 C 4.179688 27.679688 4.011719 27.6875 4.003906 27.695312 Z M 4.003906 27.695312 "/>
<path style=" stroke:none;fill-rule:nonzero;fill:rgb(0%,0%,0%);fill-opacity:1;" d="M 13.496094 27.710938 C 13.339844 27.765625 13.214844 27.855469 13.097656 27.992188 L 13 28.113281 L 13 27.699219 L 12.433594 27.699219 L 12.4375 29.128906 L 12.4375 30.558594 L 13.023438 30.558594 L 13.035156 29.710938 C 13.046875 28.769531 13.054688 28.71875 13.222656 28.511719 C 13.347656 28.355469 13.496094 28.289062 13.71875 28.28125 L 13.890625 28.28125 L 13.890625 27.667969 L 13.75 27.671875 C 13.671875 27.671875 13.554688 27.691406 13.496094 27.710938 Z M 13.496094 27.710938 "/>
<path style=" stroke:none;fill-rule:nonzero;fill:rgb(0%,0%,0%);fill-opacity:1;" d="M 14.816406 27.726562 C 14.621094 27.785156 14.449219 27.867188 14.316406 27.96875 L 14.246094 28.023438 L 14.351562 28.234375 C 14.410156 28.355469 14.460938 28.453125 14.46875 28.460938 C 14.472656 28.464844 14.546875 28.425781 14.628906 28.378906 C 14.894531 28.210938 15.257812 28.152344 15.515625 28.234375 C 15.722656 28.296875 15.886719 28.546875 15.886719 28.796875 L 15.886719 28.878906 L 15.4375 28.878906 C 14.828125 28.878906 14.609375 28.933594 14.390625 29.152344 C 14.226562 29.308594 14.175781 29.445312 14.175781 29.734375 C 14.175781 29.933594 14.1875 30.007812 14.234375 30.105469 C 14.410156 30.464844 14.835938 30.667969 15.28125 30.59375 C 15.523438 30.554688 15.785156 30.4375 15.855469 30.332031 C 15.886719 30.296875 15.914062 30.265625 15.921875 30.265625 C 15.929688 30.265625 15.933594 30.328125 15.933594 30.402344 L 15.925781 30.546875 L 16.203125 30.554688 L 16.484375 30.5625 L 16.476562 29.550781 C 16.464844 28.59375 16.457031 28.53125 16.402344 28.375 C 16.292969 28.0625 16.117188 27.875 15.832031 27.742188 C 15.648438 27.660156 15.074219 27.652344 14.816406 27.726562 Z M 15.886719 29.492188 C 15.886719 29.765625 15.796875 29.929688 15.582031 30.042969 C 15.304688 30.191406 14.933594 30.136719 14.800781 29.933594 C 14.722656 29.824219 14.722656 29.617188 14.796875 29.507812 C 14.898438 29.359375 14.976562 29.335938 15.429688 29.320312 C 15.65625 29.308594 15.855469 29.300781 15.867188 29.296875 C 15.878906 29.296875 15.886719 29.382812 15.886719 29.492188 Z M 15.886719 29.492188 "/>
<path style=" stroke:none;fill-rule:nonzero;fill:rgb(0%,0%,0%);fill-opacity:1;" d="M 17.972656 27.714844 C 17.742188 27.78125 17.554688 27.902344 17.390625 28.089844 C 16.71875 28.835938 16.964844 30.128906 17.847656 30.503906 C 18.042969 30.585938 18.488281 30.617188 18.714844 30.558594 C 19.011719 30.488281 19.289062 30.28125 19.414062 30.035156 L 19.472656 29.921875 L 19.253906 29.777344 L 19.035156 29.640625 L 18.882812 29.800781 C 18.695312 30 18.652344 30.027344 18.453125 30.046875 C 17.796875 30.125 17.359375 29.292969 17.707031 28.628906 C 17.960938 28.144531 18.574219 28.070312 18.921875 28.480469 L 19.035156 28.609375 L 19.21875 28.480469 C 19.324219 28.40625 19.414062 28.347656 19.429688 28.347656 C 19.542969 28.347656 19.230469 27.933594 19.023438 27.824219 C 18.75 27.667969 18.285156 27.621094 17.972656 27.714844 Z M 17.972656 27.714844 "/>
<path style=" stroke:none;fill-rule:nonzero;fill:rgb(0%,0%,0%);fill-opacity:1;" d="M 25.296875 27.707031 C 25.148438 27.753906 24.960938 27.875 24.871094 27.976562 C 24.832031 28.019531 24.796875 28.054688 24.789062 28.054688 C 24.78125 28.054688 24.78125 27.972656 24.78125 27.875 L 24.792969 27.699219 L 24.222656 27.699219 L 24.222656 30.558594 L 24.816406 30.558594 L 24.816406 29.742188 C 24.816406 28.804688 24.832031 28.691406 24.996094 28.492188 C 25.128906 28.332031 25.277344 28.253906 25.488281 28.234375 C 25.789062 28.210938 26.007812 28.355469 26.109375 28.644531 C 26.136719 28.71875 26.148438 28.980469 26.15625 29.652344 L 26.167969 30.558594 L 26.757812 30.558594 L 26.746094 29.609375 C 26.730469 28.582031 26.722656 28.488281 26.578125 28.199219 C 26.484375 28.011719 26.335938 27.863281 26.140625 27.761719 C 26.007812 27.695312 25.949219 27.683594 25.703125 27.679688 C 25.539062 27.671875 25.371094 27.6875 25.296875 27.707031 Z M 25.296875 27.707031 "/>
<path style=" stroke:none;fill-rule:nonzero;fill:rgb(0%,0%,0%);fill-opacity:1;" d="M 28.125 27.726562 C 27.691406 27.882812 27.371094 28.296875 27.292969 28.800781 C 27.210938 29.335938 27.390625 29.855469 27.761719 30.15625 C 28.03125 30.378906 28.167969 30.425781 28.550781 30.425781 C 28.847656 30.425781 28.886719 30.421875 29.023438 30.351562 C 29.109375 30.308594 29.226562 30.222656 29.289062 30.164062 C 29.351562 30.101562 29.40625 30.054688 29.410156 30.0625 C 29.414062 30.066406 29.410156 30.183594 29.398438 30.316406 C 29.355469 30.847656 29.101562 31.089844 28.605469 31.089844 C 28.265625 31.089844 27.960938 30.992188 27.734375 30.808594 L 27.648438 30.738281 L 27.613281 30.800781 C 27.445312 31.097656 27.402344 31.191406 27.414062 31.222656 C 27.460938 31.359375 28.023438 31.585938 28.390625 31.621094 C 29.058594 31.679688 29.511719 31.511719 29.765625 31.101562 C 29.972656 30.773438 29.976562 30.710938 29.988281 29.105469 L 29.996094 27.699219 L 29.421875 27.699219 L 29.433594 27.875 C 29.433594 27.972656 29.433594 28.054688 29.429688 28.054688 C 29.425781 28.054688 29.371094 28.007812 29.3125 27.945312 C 29.25 27.886719 29.136719 27.804688 29.050781 27.765625 C 28.921875 27.695312 28.859375 27.683594 28.589844 27.679688 C 28.34375 27.671875 28.25 27.679688 28.125 27.726562 Z M 28.976562 28.296875 C 29.261719 28.445312 29.40625 28.695312 29.40625 29.039062 C 29.40625 29.296875 29.34375 29.476562 29.179688 29.65625 C 29.035156 29.8125 28.863281 29.882812 28.625 29.882812 C 28.308594 29.882812 28.074219 29.726562 27.941406 29.425781 C 27.757812 29 27.890625 28.515625 28.25 28.3125 C 28.476562 28.1875 28.742188 28.179688 28.976562 28.296875 Z M 28.976562 28.296875 "/>
<path style=" stroke:none;fill-rule:nonzero;fill:rgb(0%,0%,0%);fill-opacity:1;" d="M 22.898438 29.128906 L 22.898438 30.558594 L 23.496094 30.558594 L 23.480469 27.699219 L 22.898438 27.699219 Z M 22.898438 29.128906 "/>
</g>
</svg>
